<svg width="24" height="49" viewBox="0 0 24 49" fill="none" xmlns="http://www.w3.org/2000/svg">
<path d="M17.2959 25.5801L9.7959 33.0801C9.58455 33.2914 9.29791 33.4102 8.99902 33.4102C8.70014 33.4102 8.41349 33.2914 8.20215 33.0801C7.9908 32.8687 7.87207 32.5821 7.87207 32.2832C7.87207 31.9843 7.9908 31.6977 8.20215 31.4863L14.9062 24.7841L8.20402 18.0801C8.09937 17.9754 8.01636 17.8512 7.95973 17.7145C7.90309 17.5777 7.87394 17.4312 7.87394 17.2832C7.87394 17.1352 7.90309 16.9887 7.95973 16.8519C8.01636 16.7152 8.09937 16.591 8.20402 16.4863C8.30867 16.3817 8.4329 16.2987 8.56963 16.242C8.70636 16.1854 8.8529 16.1562 9.0009 16.1562C9.14889 16.1563 9.29543 16.1854 9.43216 16.242C9.56889 16.2987 9.69313 16.3817 9.79777 16.4863L17.2978 23.9863C17.4025 24.091 17.4856 24.2153 17.5422 24.3521C17.5988 24.4889 17.6279 24.6355 17.6277 24.7836C17.6275 24.9317 17.5981 25.0782 17.5412 25.2149C17.4843 25.3516 17.4009 25.4757 17.2959 25.5801Z" fill="#F57C00"/>
</svg>
