<svg width="22" height="22" viewBox="0 0 22 22" fill="none" xmlns="http://www.w3.org/2000/svg">
<path d="M13.7441 0.989321C13.5548 0.896815 13.3435 0.859282 13.134 0.880994C12.9245 0.902706 12.7253 0.982791 12.5591 1.11213L6.11375 6.12495H2C1.50272 6.12495 1.02581 6.32249 0.674175 6.67412C0.322544 7.02575 0.125 7.50267 0.125 7.99995V13.9999C0.125 14.4972 0.322544 14.9741 0.674175 15.3258C1.02581 15.6774 1.50272 15.8749 2 15.8749H6.11375L12.5591 20.8878C12.7253 21.0171 12.9245 21.0972 13.134 21.1189C13.3435 21.1407 13.5549 21.1031 13.7441 21.0106C13.9333 20.9181 14.0928 20.7743 14.2043 20.5957C14.3159 20.417 14.375 20.2106 14.375 19.9999V1.99995C14.375 1.78932 14.3158 1.58292 14.2043 1.40426C14.0928 1.22559 13.9333 1.08182 13.7441 0.989321ZM12.125 17.7003L7.19094 13.8621C6.99342 13.7084 6.75028 13.625 6.5 13.6249H2.375V8.37495H6.5C6.75028 8.37494 6.99342 8.29148 7.19094 8.13776L12.125 4.30057V17.7003ZM18.125 8.74995V13.2499C18.125 13.5483 18.0065 13.8345 17.7955 14.0454C17.5845 14.2564 17.2984 14.3749 17 14.3749C16.7016 14.3749 16.4155 14.2564 16.2045 14.0454C15.9935 13.8345 15.875 13.5483 15.875 13.2499V8.74995C15.875 8.45158 15.9935 8.16543 16.2045 7.95445C16.4155 7.74347 16.7016 7.62495 17 7.62495C17.2984 7.62495 17.5845 7.74347 17.7955 7.95445C18.0065 8.16543 18.125 8.45158 18.125 8.74995ZM21.5 7.24995V14.7499C21.5 15.0483 21.3815 15.3345 21.1705 15.5454C20.9595 15.7564 20.6734 15.8749 20.375 15.8749C20.0766 15.8749 19.7905 15.7564 19.5795 15.5454C19.3685 15.3345 19.25 15.0483 19.25 14.7499V7.24995C19.25 6.95158 19.3685 6.66543 19.5795 6.45445C19.7905 6.24347 20.0766 6.12495 20.375 6.12495C20.6734 6.12495 20.9595 6.24347 21.1705 6.45445C21.3815 6.66543 21.5 6.95158 21.5 7.24995Z" fill="white"/>
</svg>
