<svg width="24" height="24" viewBox="0 0 24 24" fill="none" xmlns="http://www.w3.org/2000/svg">
<path d="M10.8024 3C12.3331 3.00008 13.8258 3.51967 15.0731 4.4866C16.3203 5.45352 17.2603 6.81976 17.7624 8.39554L17.8524 8.70023L17.9052 8.88854H20.7012C21.5413 8.88883 22.3497 9.23829 22.9616 9.86569C23.5734 10.4931 23.9427 11.3512 23.994 12.265L24 12.4834V13.7911C23.9997 14.3652 23.8014 14.9182 23.4444 15.3404C23.0874 15.7626 22.5978 16.0231 22.0728 16.0704L21.9012 16.0769H19.95L20.2392 16.8406C20.4391 17.3698 20.4499 17.9614 20.2693 18.4988C20.0887 19.0362 19.7299 19.4804 19.2636 19.7437L19.0992 19.8274C18.9089 19.912 18.7085 19.9666 18.504 19.9895L18.2988 20H16.1544C15.7878 19.9998 15.4277 19.895 15.1098 19.6961C14.7919 19.4972 14.5274 19.2111 14.3424 18.8662L14.256 18.6871L13.6092 17.1924L13.674 17.1832C11.994 17.4265 10.2936 17.4552 8.6088 17.2695L8.0124 17.195L7.3704 18.6805C7.20079 19.0734 6.93212 19.4056 6.59575 19.6383C6.25939 19.871 5.86922 19.9946 5.4708 19.9948H3.306C2.96124 19.9946 2.62182 19.902 2.31771 19.725C2.01359 19.548 1.75413 19.2922 1.56224 18.9801C1.37035 18.668 1.25192 18.3091 1.21742 17.9353C1.18291 17.5615 1.23339 17.1842 1.3644 16.8367L1.884 15.4636C1.30866 15.0865 0.832732 14.5534 0.502571 13.9164C0.172411 13.2793 -0.000732125 12.5599 2.32688e-06 11.8282C0.000301223 11.5915 0.079194 11.3628 0.222117 11.1844C0.36504 11.0061 0.562342 10.8901 0.777602 10.8579L0.900002 10.8488H3.156L3.7524 8.70023C4.21093 7.05165 5.14384 5.60749 6.41334 4.58104C7.68285 3.55459 9.22163 3.00029 10.8024 3ZM18.9348 15.6755C18.0084 16.0808 17.066 16.4143 16.1076 16.6758L15.4488 16.8445L15.8832 17.8515C15.9123 17.9193 15.9618 17.9743 16.0236 18.0071L16.0872 18.0306L16.1544 18.0398H18.2988C18.3412 18.0397 18.3831 18.0299 18.4218 18.0109C18.4605 17.9919 18.495 17.9642 18.5231 17.9296C18.5513 17.895 18.5723 17.8543 18.585 17.8102C18.5976 17.766 18.6015 17.7195 18.5964 17.6736L18.576 17.5886L18.0024 16.0769H17.9508L18.444 15.8834L18.9348 15.6755ZM2.6724 15.6755L3.1404 15.8742L3.606 16.0586L3.0276 17.5834C3.00885 17.6331 3.00165 17.6871 3.00663 17.7406C3.01161 17.7941 3.02862 17.8454 3.05615 17.8901C3.08368 17.9347 3.12089 17.9712 3.16447 17.9964C3.20805 18.0216 3.25666 18.0347 3.306 18.0345H5.4708L5.5392 18.0254C5.58343 18.0143 5.62476 17.9924 5.6601 17.9614C5.69543 17.9303 5.72385 17.891 5.7432 17.8462L6.174 16.8485L6.2268 16.8615C5.01296 16.5786 3.82376 16.1823 2.6724 15.6768M10.8024 4.96154C9.65263 4.96191 8.53116 5.35016 7.592 6.07297C6.65283 6.79578 5.94203 7.81769 5.5572 8.99838L5.4756 9.26908L4.1124 14.1729L4.308 14.2501C8.35185 15.7627 12.734 15.8237 16.812 14.424L17.2992 14.2501L17.4936 14.1729L16.1304 9.26908C15.8096 8.1162 15.181 7.09349 14.3249 6.33126C13.4688 5.56902 12.4239 5.10176 11.3232 4.989L11.064 4.96808L10.8024 4.96154ZM2.43 13.4615L2.6112 12.8077L2.0028 12.8103L2.0328 12.8783C2.1368 13.0963 2.27 13.2907 2.43 13.4615ZM18.45 10.8488L19.3572 14.1154L21.9012 14.1167C21.9686 14.1166 22.0341 14.0918 22.087 14.0463C22.1399 14.0007 22.1772 13.9371 22.1928 13.8656L22.2012 13.7898V12.4834C22.2011 12.0789 22.0634 11.6889 21.8147 11.3887C21.566 11.0884 21.224 10.8993 20.8548 10.8579L20.7012 10.8501L18.45 10.8488Z" fill="white"/>
</svg>
