<svg width="282" height="191" viewBox="0 0 282 191" fill="none" xmlns="http://www.w3.org/2000/svg">
<rect width="175.624" height="191" transform="translate(2)" fill="white"/>
<path d="M13.8308 110.438C12.5146 110.438 11.3701 109.951 10.3972 108.978C9.4244 108.006 8.93799 106.861 8.93799 105.545V70.6945C8.93799 69.3783 9.4244 68.2338 10.3972 67.261C11.3701 66.2882 12.5146 65.8017 13.8308 65.8017H14.9467C16.3201 65.8017 17.4646 66.2882 18.3802 67.261C19.353 68.1766 19.8681 69.3211 19.9253 70.6945V71.2954C19.9253 71.3526 19.9539 71.3812 20.0111 71.3812C20.0683 71.3812 20.1256 71.3526 20.1828 71.2954C24.0741 67.0607 28.6236 64.9434 33.8311 64.9434C39.0386 64.9434 42.8155 66.4312 45.1617 69.407C47.5652 72.3255 48.7669 77.2182 48.7669 84.0853V105.545C48.7669 106.861 48.2805 108.006 47.3077 108.978C46.3348 109.951 45.1903 110.438 43.8742 110.438H42.4149C41.0987 110.438 39.9542 109.951 38.9814 108.978C38.0658 108.006 37.608 106.861 37.608 105.545V84.9437C37.608 80.6518 37.0357 77.7333 35.8912 76.1882C34.8039 74.5859 32.8296 73.7847 29.9684 73.7847C27.6221 73.7847 25.4475 74.7861 23.4447 76.789C21.4418 78.7919 20.4403 80.9379 20.4403 83.2269V105.545C20.4403 106.861 19.9539 108.006 18.9811 108.978C18.0082 109.951 16.8637 110.438 15.5475 110.438H13.8308Z" fill="#FFDA13"/>
<path d="M6.48209 149.705C6.22765 149.705 6.0064 149.611 5.81834 149.423C5.63027 149.235 5.53624 149.014 5.53624 148.759V138.537C5.53624 138.283 5.63027 138.062 5.81834 137.874C6.0064 137.686 6.22765 137.592 6.48209 137.592H7.14585C7.40028 137.592 7.62154 137.686 7.8096 137.874C7.99766 138.062 8.0917 138.283 8.0917 138.537V148.759C8.0917 149.014 7.99766 149.235 7.8096 149.423C7.62154 149.611 7.40028 149.705 7.14585 149.705H6.48209ZM11.8181 149.705C11.5636 149.705 11.3424 149.611 11.1543 149.423C10.9662 149.235 10.8722 149.014 10.8722 148.759V142.022C10.8722 141.768 10.9662 141.546 11.1543 141.358C11.3424 141.17 11.5636 141.076 11.8181 141.076H12.0338C12.2993 141.076 12.5205 141.17 12.6975 141.358C12.8856 141.535 12.9852 141.757 12.9962 142.022V142.138C12.9962 142.149 13.0017 142.155 13.0128 142.155C13.0239 142.155 13.0349 142.149 13.046 142.138C13.7983 141.32 14.6777 140.91 15.6844 140.91C16.6911 140.91 17.4212 141.198 17.8748 141.773C18.3394 142.337 18.5717 143.283 18.5717 144.611V148.759C18.5717 149.014 18.4777 149.235 18.2897 149.423C18.1016 149.611 17.8803 149.705 17.6259 149.705H17.3438C17.0894 149.705 16.8681 149.611 16.68 149.423C16.503 149.235 16.4145 149.014 16.4145 148.759V144.777C16.4145 143.947 16.3039 143.383 16.0827 143.084C15.8725 142.774 15.4908 142.62 14.9377 142.62C14.4841 142.62 14.0638 142.813 13.6766 143.2C13.2894 143.587 13.0958 144.002 13.0958 144.445V148.759C13.0958 149.014 13.0017 149.235 12.8137 149.423C12.6256 149.611 12.4044 149.705 12.1499 149.705H11.8181ZM22.2171 149.705C21.9626 149.705 21.7414 149.611 21.5533 149.423C21.3653 149.235 21.2712 149.014 21.2712 148.759V142.022C21.2712 141.768 21.3653 141.546 21.5533 141.358C21.7414 141.17 21.9626 141.076 22.2171 141.076H22.6485C22.903 141.076 23.1242 141.17 23.3123 141.358C23.5003 141.546 23.5944 141.768 23.5944 142.022V148.759C23.5944 149.014 23.5003 149.235 23.3123 149.423C23.1242 149.611 22.903 149.705 22.6485 149.705H22.2171ZM22.2171 139.251C21.9626 139.251 21.7414 139.157 21.5533 138.969C21.3653 138.781 21.2712 138.56 21.2712 138.305V138.206C21.2712 137.951 21.3653 137.73 21.5533 137.542C21.7414 137.354 21.9626 137.26 22.2171 137.26H22.6485C22.903 137.26 23.1242 137.354 23.3123 137.542C23.5003 137.73 23.5944 137.951 23.5944 138.206V138.305C23.5944 138.56 23.5003 138.781 23.3123 138.969C23.1242 139.157 22.903 139.251 22.6485 139.251H22.2171ZM26.762 143.018C26.5407 143.018 26.3527 142.94 26.1978 142.785C26.0429 142.62 25.9655 142.426 25.9655 142.205C25.9655 141.983 26.0429 141.795 26.1978 141.64C26.3527 141.486 26.5407 141.408 26.762 141.408H27.5585C27.658 141.408 27.7078 141.358 27.7078 141.259V139.201C27.7078 138.947 27.7963 138.725 27.9733 138.537C28.1614 138.349 28.3826 138.255 28.6371 138.255H28.969C29.2234 138.255 29.4447 138.349 29.6327 138.537C29.8208 138.725 29.9148 138.947 29.9148 139.201V141.259C29.9148 141.358 29.9646 141.408 30.0642 141.408H31.9559C32.1771 141.408 32.3652 141.486 32.52 141.64C32.686 141.795 32.769 141.983 32.769 142.205C32.769 142.426 32.686 142.62 32.52 142.785C32.3652 142.94 32.1771 143.018 31.9559 143.018H30.0642C29.9646 143.018 29.9148 143.062 29.9148 143.151V146.502C29.9148 147.222 29.9922 147.686 30.1471 147.896C30.302 148.107 30.6228 148.212 31.1096 148.212C31.3751 148.212 31.5742 148.201 31.7069 148.178C31.9282 148.156 32.1218 148.206 32.2877 148.328C32.4537 148.449 32.5366 148.615 32.5366 148.826C32.5366 149.069 32.4537 149.29 32.2877 149.489C32.1329 149.677 31.9393 149.783 31.7069 149.805C31.2202 149.849 30.8551 149.871 30.6118 149.871C29.5387 149.871 28.7864 149.644 28.355 149.191C27.9235 148.726 27.7078 147.902 27.7078 146.718V143.151C27.7078 143.062 27.658 143.018 27.5585 143.018H26.762ZM36.5098 149.705C36.2554 149.705 36.0341 149.611 35.8461 149.423C35.658 149.235 35.564 149.014 35.564 148.759V142.022C35.564 141.768 35.658 141.546 35.8461 141.358C36.0341 141.17 36.2554 141.076 36.5098 141.076H36.9413C37.1957 141.076 37.417 141.17 37.605 141.358C37.7931 141.546 37.8871 141.768 37.8871 142.022V148.759C37.8871 149.014 37.7931 149.235 37.605 149.423C37.417 149.611 37.1957 149.705 36.9413 149.705H36.5098ZM36.5098 139.251C36.2554 139.251 36.0341 139.157 35.8461 138.969C35.658 138.781 35.564 138.56 35.564 138.305V138.206C35.564 137.951 35.658 137.73 35.8461 137.542C36.0341 137.354 36.2554 137.26 36.5098 137.26H36.9413C37.1957 137.26 37.417 137.354 37.605 137.542C37.7931 137.73 37.8871 137.951 37.8871 138.206V138.305C37.8871 138.56 37.7931 138.781 37.605 138.969C37.417 139.157 37.1957 139.251 36.9413 139.251H36.5098ZM44.7386 145.557C43.1566 145.557 42.3656 146.043 42.3656 147.017C42.3656 147.371 42.4652 147.659 42.6643 147.88C42.8745 148.101 43.14 148.212 43.4608 148.212C44.0914 148.212 44.6003 148.018 44.9875 147.631C45.3747 147.233 45.5683 146.691 45.5683 146.005V145.706C45.5683 145.606 45.5185 145.557 45.4189 145.557H44.7386ZM42.8635 149.871C42.1112 149.871 41.4862 149.628 40.9884 149.141C40.5016 148.643 40.2582 148.001 40.2582 147.216C40.2582 146.254 40.6233 145.507 41.3534 144.976C42.0946 144.445 43.223 144.179 44.7386 144.179H45.4189C45.5185 144.179 45.5683 144.13 45.5683 144.03V143.897C45.5683 143.388 45.4466 143.034 45.2032 142.835C44.9598 142.625 44.5284 142.52 43.9089 142.52C43.2672 142.52 42.4818 142.636 41.5525 142.868C41.3534 142.924 41.1709 142.891 41.0049 142.769C40.839 142.636 40.756 142.465 40.756 142.254C40.756 142 40.8335 141.773 40.9884 141.574C41.1432 141.364 41.3424 141.237 41.5857 141.192C42.4265 141.004 43.2175 140.91 43.9586 140.91C45.3747 140.91 46.3648 141.165 46.9289 141.674C47.4931 142.183 47.7752 143.073 47.7752 144.345V148.759C47.7752 149.014 47.6812 149.235 47.4931 149.423C47.3161 149.611 47.1004 149.705 46.846 149.705H46.6634C46.3979 149.705 46.1712 149.617 45.9831 149.44C45.795 149.252 45.6955 149.025 45.6844 148.759V148.527C45.6844 148.516 45.6789 148.51 45.6678 148.51C45.6457 148.51 45.6346 148.516 45.6346 148.527C44.9598 149.423 44.0361 149.871 42.8635 149.871ZM51.4184 149.705C51.1639 149.705 50.9427 149.611 50.7546 149.423C50.5665 149.235 50.4725 149.014 50.4725 148.759V138.206C50.4725 137.951 50.5665 137.73 50.7546 137.542C50.9427 137.354 51.1639 137.26 51.4184 137.26H51.8498C52.1042 137.26 52.3255 137.354 52.5136 137.542C52.7016 137.73 52.7956 137.951 52.7956 138.206V148.759C52.7956 149.014 52.7016 149.235 52.5136 149.423C52.3255 149.611 52.1042 149.705 51.8498 149.705H51.4184Z" fill="#FFDA13"/>
<path d="M2 119.326V125.153C2 126.379 2.99382 127.373 4.21977 127.373H53.7484C54.9743 127.373 55.9682 126.379 55.9682 125.153V119.326" stroke="#FFDA13" stroke-width="3.32966" stroke-linecap="round"/>
<path d="M103.942 65.8145H106.174C107.49 65.8145 108.635 66.3009 109.607 67.2737C110.58 68.2465 111.067 69.391 111.067 70.7072V105.558C111.067 106.874 110.58 108.018 109.607 108.991C108.635 109.964 107.49 110.45 106.174 110.45H103.942C102.626 110.45 101.481 109.964 100.509 108.991C99.5357 108.018 99.0493 106.874 99.0493 105.558V70.7072C99.0493 69.391 99.5357 68.2465 100.509 67.2737C101.481 66.3009 102.626 65.8145 103.942 65.8145Z" fill="#F57C00"/>
<path d="M87.5703 149.705C87.3158 149.705 87.0946 149.611 86.9065 149.423C86.7295 149.235 86.641 149.014 86.641 148.759V138.537C86.641 138.283 86.7295 138.062 86.9065 137.874C87.0946 137.686 87.3158 137.592 87.5703 137.592H93.0462C93.3007 137.592 93.5219 137.686 93.71 137.874C93.8981 138.062 93.9921 138.283 93.9921 138.537C93.9921 138.792 93.8981 139.013 93.71 139.201C93.5219 139.378 93.3007 139.467 93.0462 139.467H89.0969C89.0084 139.467 88.9641 139.516 88.9641 139.616V142.52C88.9641 142.608 89.0084 142.653 89.0969 142.653H92.7641C93.0075 142.653 93.2177 142.741 93.3947 142.918C93.5717 143.084 93.6602 143.294 93.6602 143.549C93.6602 143.803 93.5717 144.019 93.3947 144.196C93.2177 144.362 93.0075 144.445 92.7641 144.445H89.0969C89.0084 144.445 88.9641 144.489 88.9641 144.578V148.759C88.9641 149.014 88.8701 149.235 88.6821 149.423C88.494 149.611 88.2727 149.705 88.0183 149.705H87.5703ZM97.6417 149.705C97.3873 149.705 97.166 149.611 96.9779 149.423C96.7899 149.235 96.6958 149.014 96.6958 148.759V142.022C96.6958 141.768 96.7899 141.546 96.9779 141.358C97.166 141.17 97.3873 141.076 97.6417 141.076H98.0731C98.3276 141.076 98.5488 141.17 98.7369 141.358C98.925 141.546 99.019 141.768 99.019 142.022V148.759C99.019 149.014 98.925 149.235 98.7369 149.423C98.5488 149.611 98.3276 149.705 98.0731 149.705H97.6417ZM97.6417 139.251C97.3873 139.251 97.166 139.157 96.9779 138.969C96.7899 138.781 96.6958 138.56 96.6958 138.305V138.206C96.6958 137.951 96.7899 137.73 96.9779 137.542C97.166 137.354 97.3873 137.26 97.6417 137.26H98.0731C98.3276 137.26 98.5488 137.354 98.7369 137.542C98.925 137.73 99.019 137.951 99.019 138.206V138.305C99.019 138.56 98.925 138.781 98.7369 138.969C98.5488 139.157 98.3276 139.251 98.0731 139.251H97.6417ZM102.751 149.705C102.496 149.705 102.275 149.611 102.087 149.423C101.899 149.235 101.805 149.014 101.805 148.759V142.022C101.805 141.768 101.899 141.546 102.087 141.358C102.275 141.17 102.496 141.076 102.751 141.076H102.967C103.232 141.076 103.453 141.17 103.63 141.358C103.818 141.535 103.918 141.757 103.929 142.022V142.138C103.929 142.149 103.934 142.155 103.946 142.155C103.957 142.155 103.968 142.149 103.979 142.138C104.731 141.32 105.61 140.91 106.617 140.91C107.624 140.91 108.354 141.198 108.808 141.773C109.272 142.337 109.504 143.283 109.504 144.611V148.759C109.504 149.014 109.41 149.235 109.222 149.423C109.034 149.611 108.813 149.705 108.559 149.705H108.277C108.022 149.705 107.801 149.611 107.613 149.423C107.436 149.235 107.347 149.014 107.347 148.759V144.777C107.347 143.947 107.237 143.383 107.015 143.084C106.805 142.774 106.424 142.62 105.87 142.62C105.417 142.62 104.996 142.813 104.609 143.2C104.222 143.587 104.029 144.002 104.029 144.445V148.759C104.029 149.014 103.934 149.235 103.746 149.423C103.558 149.611 103.337 149.705 103.083 149.705H102.751ZM115.772 145.557C114.19 145.557 113.399 146.043 113.399 147.017C113.399 147.371 113.498 147.659 113.697 147.88C113.908 148.101 114.173 148.212 114.494 148.212C115.124 148.212 115.633 148.018 116.021 147.631C116.408 147.233 116.601 146.691 116.601 146.005V145.706C116.601 145.606 116.552 145.557 116.452 145.557H115.772ZM113.897 149.871C113.144 149.871 112.519 149.628 112.021 149.141C111.535 148.643 111.291 148.001 111.291 147.216C111.291 146.254 111.656 145.507 112.386 144.976C113.128 144.445 114.256 144.179 115.772 144.179H116.452C116.552 144.179 116.601 144.13 116.601 144.03V143.897C116.601 143.388 116.48 143.034 116.236 142.835C115.993 142.625 115.561 142.52 114.942 142.52C114.3 142.52 113.515 142.636 112.586 142.868C112.386 142.924 112.204 142.891 112.038 142.769C111.872 142.636 111.789 142.465 111.789 142.254C111.789 142 111.867 141.773 112.021 141.574C112.176 141.364 112.375 141.237 112.619 141.192C113.46 141.004 114.251 140.91 114.992 140.91C116.408 140.91 117.398 141.165 117.962 141.674C118.526 142.183 118.808 143.073 118.808 144.345V148.759C118.808 149.014 118.714 149.235 118.526 149.423C118.349 149.611 118.133 149.705 117.879 149.705H117.697C117.431 149.705 117.204 149.617 117.016 149.44C116.828 149.252 116.729 149.025 116.717 148.759V148.527C116.717 148.516 116.712 148.51 116.701 148.51C116.679 148.51 116.668 148.516 116.668 148.527C115.993 149.423 115.069 149.871 113.897 149.871ZM122.451 149.705C122.197 149.705 121.976 149.611 121.788 149.423C121.6 149.235 121.506 149.014 121.506 148.759V138.206C121.506 137.951 121.6 137.73 121.788 137.542C121.976 137.354 122.197 137.26 122.451 137.26H122.883C123.137 137.26 123.359 137.354 123.547 137.542C123.735 137.73 123.829 137.951 123.829 138.206V148.759C123.829 149.014 123.735 149.235 123.547 149.423C123.359 149.611 123.137 149.705 122.883 149.705H122.451Z" fill="#F57C00"/>
<path d="M77.9619 119.33V125.157C77.9619 126.383 78.9557 127.377 80.1817 127.377H129.71C130.936 127.377 131.93 126.383 131.93 125.157V119.33" stroke="#F57C00" stroke-width="3.32966" stroke-linecap="round"/>
<path d="M94.4802 51.7081L89.3299 44.6694C88.7004 43.8682 88.6145 43.0384 89.0723 42.1801C89.5301 41.2644 90.2741 40.8066 91.3041 40.8066H93.7076C95.1955 40.8066 96.5975 41.1786 97.9137 41.9225C99.2299 42.6665 100.289 43.6679 101.09 44.9269L104.867 51.1072C104.867 51.1645 104.924 51.1931 105.038 51.1931C105.153 51.1931 105.21 51.1645 105.21 51.1072L108.987 44.9269C109.731 43.6679 110.761 42.6665 112.077 41.9225C113.393 41.1786 114.824 40.8066 116.369 40.8066H118.772C119.802 40.8066 120.518 41.2644 120.918 42.1801C121.376 43.0384 121.319 43.8682 120.747 44.6694L115.596 51.7081C113.651 54.3405 111.076 55.6567 107.871 55.6567H102.206C98.9437 55.6567 96.3686 54.3405 94.4802 51.7081Z" fill="#469001"/>
<path d="M87.9734 9.1063C87.719 9.1063 87.4977 9.0178 87.3097 8.8408C87.1216 8.65273 87.0276 8.43148 87.0276 8.17704V8.12726C87.0276 7.87282 87.1216 7.65157 87.3097 7.46351C87.4977 7.27544 87.719 7.18141 87.9734 7.18141H95.0424C95.2968 7.18141 95.5181 7.27544 95.7062 7.46351C95.8942 7.65157 95.9883 7.87282 95.9883 8.12726V8.17704C95.9883 8.43148 95.8942 8.65273 95.7062 8.8408C95.5181 9.0178 95.2968 9.1063 95.0424 9.1063H92.8188C92.7303 9.1063 92.6861 9.15608 92.6861 9.25564V18.3491C92.6861 18.6035 92.592 18.8248 92.404 19.0128C92.2159 19.2009 91.9947 19.2949 91.7402 19.2949H91.2756C91.0212 19.2949 90.7999 19.2009 90.6119 19.0128C90.4238 18.8248 90.3298 18.6035 90.3298 18.3491V9.25564C90.3298 9.15608 90.2855 9.1063 90.197 9.1063H87.9734ZM101.623 12.8067C101.303 12.3421 100.816 12.1098 100.163 12.1098C99.5105 12.1098 99.0182 12.3421 98.6863 12.8067C98.3655 13.2603 98.2051 13.9849 98.2051 14.9805C98.2051 15.9762 98.3655 16.7063 98.6863 17.1709C99.0182 17.6245 99.5105 17.8513 100.163 17.8513C100.816 17.8513 101.303 17.6245 101.623 17.1709C101.955 16.7063 102.121 15.9762 102.121 14.9805C102.121 13.9849 101.955 13.2603 101.623 12.8067ZM103.25 18.2993C102.519 19.0737 101.491 19.4609 100.163 19.4609C98.8357 19.4609 97.8013 19.0737 97.0601 18.2993C96.33 17.5138 95.9649 16.4076 95.9649 14.9805C95.9649 13.5535 96.33 12.4527 97.0601 11.6783C97.8013 10.8929 98.8357 10.5002 100.163 10.5002C101.491 10.5002 102.519 10.8929 103.25 11.6783C103.991 12.4527 104.361 13.5535 104.361 14.9805C104.361 16.4076 103.991 17.5138 103.25 18.2993ZM107.02 19.2949C106.766 19.2949 106.544 19.2009 106.356 19.0128C106.168 18.8248 106.074 18.6035 106.074 18.3491V11.612C106.074 11.3575 106.168 11.1363 106.356 10.9482C106.544 10.7602 106.766 10.6661 107.02 10.6661H107.236C107.501 10.6661 107.723 10.7602 107.9 10.9482C108.088 11.1252 108.187 11.3465 108.198 11.612V11.7281C108.198 11.7392 108.204 11.7447 108.215 11.7447C108.226 11.7447 108.237 11.7392 108.248 11.7281C109 10.9095 109.88 10.5002 110.886 10.5002C111.893 10.5002 112.623 10.7878 113.077 11.3631C113.541 11.9273 113.774 12.8731 113.774 14.2006V18.3491C113.774 18.6035 113.68 18.8248 113.492 19.0128C113.304 19.2009 113.082 19.2949 112.828 19.2949H112.546C112.291 19.2949 112.07 19.2009 111.882 19.0128C111.705 18.8248 111.617 18.6035 111.617 18.3491V14.3665C111.617 13.5369 111.506 12.9727 111.285 12.674C111.074 12.3642 110.693 12.2093 110.14 12.2093C109.686 12.2093 109.266 12.4029 108.879 12.7901C108.491 13.1773 108.298 13.5922 108.298 14.0347V18.3491C108.298 18.6035 108.204 18.8248 108.016 19.0128C107.828 19.2009 107.606 19.2949 107.352 19.2949H107.02ZM119.493 12.0434C118.929 12.0434 118.492 12.2038 118.182 12.5246C117.884 12.8344 117.696 13.3377 117.618 14.0347C117.618 14.1232 117.662 14.1674 117.751 14.1674H121.003C121.092 14.1674 121.136 14.1232 121.136 14.0347C121.092 12.7072 120.544 12.0434 119.493 12.0434ZM119.908 19.4609C118.459 19.4609 117.342 19.0847 116.556 18.3325C115.782 17.5692 115.395 16.4518 115.395 14.9805C115.395 13.5203 115.743 12.4085 116.44 11.6452C117.137 10.8818 118.144 10.5002 119.46 10.5002C121.916 10.5002 123.177 11.8941 123.244 14.6818C123.255 14.9473 123.161 15.1686 122.961 15.3456C122.762 15.5226 122.53 15.6111 122.264 15.6111H117.734C117.635 15.6111 117.596 15.6609 117.618 15.7604C117.696 16.5016 117.939 17.0437 118.348 17.3866C118.769 17.7185 119.377 17.8844 120.174 17.8844C120.671 17.8844 121.225 17.8015 121.833 17.6355C122.032 17.5802 122.215 17.6134 122.381 17.7351C122.558 17.8568 122.646 18.0227 122.646 18.2329C122.646 18.4874 122.569 18.7141 122.414 18.9133C122.27 19.1013 122.076 19.2175 121.833 19.2617C121.214 19.3945 120.572 19.4609 119.908 19.4609Z" fill="#469001"/>
<path d="M77.9619 36.9219V31.095C77.9619 29.869 78.9557 28.8752 80.1817 28.8752H129.71C130.936 28.8752 131.93 29.869 131.93 31.095V36.9219" stroke="#469001" stroke-width="3.32966" stroke-linecap="round"/>
<path d="M37.3754 178.076C35.9132 177.588 34.8531 176.997 34.1951 176.303C33.5493 175.608 33.2264 174.767 33.2264 173.78C33.2264 172.671 33.5981 171.794 34.3414 171.148C35.0847 170.503 36.1265 170.18 37.4668 170.18C38.6 170.18 39.587 170.308 40.4278 170.563C40.7203 170.649 40.9518 170.825 41.1224 171.094C41.3051 171.349 41.3965 171.636 41.3965 171.953V172.117C41.3965 172.349 41.293 172.531 41.0858 172.665C40.8787 172.787 40.6654 172.806 40.4461 172.72C39.5322 172.367 38.6 172.19 37.6496 172.19C37.0404 172.19 36.5773 172.33 36.2605 172.611C35.9437 172.891 35.7853 173.281 35.7853 173.78C35.7853 174.658 36.358 175.285 37.5034 175.663C39.1484 176.187 40.2877 176.784 40.9213 177.454C41.5671 178.124 41.89 178.989 41.89 180.05C41.89 182.608 40.3121 183.888 37.1561 183.888C36.1691 183.888 35.2735 183.736 34.4693 183.431C34.1769 183.321 33.9453 183.132 33.7748 182.864C33.6163 182.596 33.5371 182.298 33.5371 181.969V181.749C33.5371 181.518 33.6346 181.353 33.8296 181.256C34.0245 181.146 34.2256 181.14 34.4327 181.238C35.237 181.64 36.0838 181.841 36.9733 181.841C38.5208 181.841 39.2946 181.256 39.2946 180.086C39.2946 179.611 39.1484 179.221 38.8559 178.916C38.5635 178.6 38.07 178.319 37.3754 178.076ZM46.0346 183.559L43.0005 175.169C42.9274 174.926 42.9579 174.706 43.0919 174.511C43.226 174.304 43.4209 174.201 43.6768 174.201H44.2251C44.5298 174.201 44.81 174.298 45.0659 174.493C45.3218 174.676 45.4863 174.914 45.5594 175.206L47.2592 181.183C47.2592 181.195 47.2653 181.201 47.2775 181.201C47.2897 181.201 47.2958 181.195 47.2958 181.183L49.2515 175.188C49.349 174.895 49.5256 174.658 49.7815 174.475C50.0374 174.292 50.3177 174.201 50.6223 174.201H51.061C51.3169 174.201 51.5118 174.304 51.6459 174.511C51.7921 174.719 51.8164 174.938 51.719 175.169L47.2592 186.757C47.1496 187.05 46.9668 187.281 46.7109 187.452C46.455 187.635 46.1687 187.726 45.8518 187.726H45.4132C45.1695 187.726 44.9745 187.623 44.8283 187.415C44.6943 187.22 44.676 187.007 44.7735 186.776L46.0346 183.851C46.059 183.803 46.0712 183.754 46.0712 183.705C46.0712 183.656 46.059 183.608 46.0346 183.559ZM55.0462 183.705C54.7659 183.705 54.5222 183.602 54.3151 183.394C54.108 183.187 54.0044 182.944 54.0044 182.663V171.039C54.0044 170.758 54.108 170.515 54.3151 170.308C54.5222 170.1 54.7659 169.997 55.0462 169.997H55.5214C55.8017 169.997 56.0454 170.1 56.2525 170.308C56.4597 170.515 56.5632 170.758 56.5632 171.039V182.663C56.5632 182.944 56.4597 183.187 56.2525 183.394C56.0454 183.602 55.8017 183.705 55.5214 183.705H55.0462ZM60.8651 183.705C60.5848 183.705 60.3411 183.602 60.134 183.394C59.9268 183.187 59.8232 182.944 59.8232 182.663V171.039C59.8232 170.758 59.9268 170.515 60.134 170.308C60.3411 170.1 60.5848 169.997 60.8651 169.997H61.3403C61.6205 169.997 61.8642 170.1 62.0714 170.308C62.2785 170.515 62.3821 170.758 62.3821 171.039V182.663C62.3821 182.944 62.2785 183.187 62.0714 183.394C61.8642 183.602 61.6205 183.705 61.3403 183.705H60.8651ZM69.9288 179.136C68.1863 179.136 67.3151 179.672 67.3151 180.744C67.3151 181.134 67.4247 181.451 67.6441 181.695C67.8756 181.938 68.168 182.06 68.5214 182.06C69.2159 182.06 69.7765 181.847 70.2029 181.42C70.6294 180.982 70.8426 180.385 70.8426 179.629V179.3C70.8426 179.191 70.7878 179.136 70.6782 179.136H69.9288ZM67.8634 183.888C67.0348 183.888 66.3464 183.62 65.798 183.084C65.2619 182.535 64.9938 181.829 64.9938 180.963C64.9938 179.903 65.3959 179.081 66.2001 178.496C67.0165 177.911 68.2594 177.619 69.9288 177.619H70.6782C70.7878 177.619 70.8426 177.564 70.8426 177.454V177.308C70.8426 176.747 70.7086 176.357 70.4405 176.138C70.1725 175.907 69.6973 175.791 69.0149 175.791C68.3082 175.791 67.443 175.919 66.4195 176.175C66.2001 176.236 65.9991 176.199 65.8163 176.065C65.6335 175.919 65.5421 175.73 65.5421 175.498C65.5421 175.218 65.6274 174.968 65.798 174.749C65.9686 174.518 66.1879 174.377 66.456 174.329C67.3821 174.122 68.2533 174.018 69.0697 174.018C70.6294 174.018 71.72 174.298 72.3414 174.859C72.9629 175.419 73.2736 176.4 73.2736 177.801V182.663C73.2736 182.944 73.17 183.187 72.9629 183.394C72.7679 183.602 72.5303 183.705 72.25 183.705H72.049C71.7565 183.705 71.5067 183.608 71.2996 183.413C71.0924 183.205 70.9828 182.956 70.9706 182.663V182.407C70.9706 182.395 70.9645 182.389 70.9523 182.389C70.9279 182.389 70.9158 182.395 70.9158 182.407C70.1725 183.394 69.155 183.888 67.8634 183.888ZM78.2003 177.71V180.196C78.2003 180.683 78.4074 181.116 78.8217 181.493C79.236 181.871 79.7295 182.06 80.3022 182.06C80.948 182.06 81.4598 181.804 81.8375 181.292C82.2152 180.768 82.4041 179.989 82.4041 178.953C82.4041 176.881 81.7035 175.846 80.3022 175.846C79.7295 175.846 79.236 176.035 78.8217 176.412C78.4074 176.79 78.2003 177.223 78.2003 177.71ZM76.8294 183.705C76.5492 183.705 76.3055 183.602 76.0983 183.394C75.8912 183.187 75.7876 182.944 75.7876 182.663V171.039C75.7876 170.758 75.8912 170.515 76.0983 170.308C76.3055 170.1 76.5492 169.997 76.8294 169.997H77.195C77.4752 169.997 77.7189 170.1 77.9261 170.308C78.1332 170.515 78.2368 170.758 78.2368 171.039V175.151C78.2368 175.163 78.2429 175.169 78.2551 175.169C78.2673 175.169 78.2795 175.163 78.2916 175.151C79.0837 174.396 79.9976 174.018 81.0333 174.018C82.1787 174.018 83.0926 174.451 83.7749 175.316C84.4695 176.169 84.8168 177.381 84.8168 178.953C84.8168 180.476 84.4573 181.682 83.7384 182.572C83.0195 183.449 82.1178 183.888 81.0333 183.888C79.9244 183.888 78.9679 183.437 78.1637 182.535C78.1515 182.523 78.1393 182.517 78.1271 182.517C78.115 182.517 78.1089 182.523 78.1089 182.535L78.0906 182.663C78.0784 182.956 77.9687 183.205 77.7616 183.413C77.5666 183.608 77.3229 183.705 77.0305 183.705H76.8294ZM88.3886 183.705C88.1083 183.705 87.8646 183.602 87.6575 183.394C87.4504 183.187 87.3468 182.944 87.3468 182.663V171.039C87.3468 170.758 87.4504 170.515 87.6575 170.308C87.8646 170.1 88.1083 169.997 88.3886 169.997H88.8638C89.1441 169.997 89.3878 170.1 89.5949 170.308C89.8021 170.515 89.9056 170.758 89.9056 171.039V182.663C89.9056 182.944 89.8021 183.187 89.5949 183.394C89.3878 183.602 89.1441 183.705 88.8638 183.705H88.3886ZM96.8491 175.718C96.2277 175.718 95.7464 175.894 95.4052 176.248C95.0762 176.589 94.8691 177.143 94.7838 177.911C94.7838 178.009 94.8325 178.057 94.93 178.057H98.5124C98.6099 178.057 98.6586 178.009 98.6586 177.911C98.6099 176.449 98.0067 175.718 96.8491 175.718ZM97.3061 183.888C95.7098 183.888 94.4791 183.474 93.614 182.645C92.7611 181.804 92.3346 180.574 92.3346 178.953C92.3346 177.344 92.7184 176.12 93.4861 175.279C94.2537 174.438 95.3626 174.018 96.8126 174.018C99.5177 174.018 100.907 175.553 100.98 178.624C100.992 178.916 100.889 179.16 100.669 179.355C100.45 179.55 100.194 179.647 99.9015 179.647H94.9117C94.8021 179.647 94.7594 179.702 94.7838 179.812C94.8691 180.628 95.1371 181.225 95.588 181.603C96.051 181.969 96.7212 182.151 97.5985 182.151C98.1469 182.151 98.7561 182.06 99.4263 181.877C99.6456 181.816 99.8467 181.853 100.029 181.987C100.224 182.121 100.322 182.304 100.322 182.535C100.322 182.816 100.237 183.065 100.066 183.285C99.9076 183.492 99.6944 183.62 99.4263 183.669C98.7439 183.815 98.0372 183.888 97.3061 183.888Z" fill="black"/>
<rect width="111.237" height="191" transform="translate(170)" fill="white"/>
<path d="M221.655 67.0964C222.35 64.7714 224.7 63.3095 227.066 63.8508V63.8508C229.516 64.4113 231.021 66.8946 230.271 69.2935C227.652 77.6786 224.012 85.7482 219.907 91.9169C218.569 93.9275 215.784 94.1644 213.911 92.6396V92.6396C212 91.0839 211.582 88.1353 212.976 86.1032C216.565 80.8688 219.555 74.1227 221.655 67.0964ZM219.719 100.104C220.342 97.7773 222.638 96.2568 224.997 96.7449V96.7449C227.378 97.2375 228.906 99.5852 228.259 101.929C226.542 108.147 224.139 114.159 221.485 118.919C220.368 120.924 217.751 121.384 215.81 120.158V120.158C213.741 118.849 213.087 115.949 214.302 113.823C216.542 109.905 218.386 105.073 219.719 100.104ZM223.391 78.4896C224.02 76.9371 225.528 75.9213 227.204 75.9213H250.71C252.982 75.9213 254.824 77.7632 254.824 80.0353V80.0353C254.824 82.3074 252.982 84.1493 250.71 84.1493H227.204C224.285 84.1493 222.294 81.1945 223.391 78.4896V78.4896ZM232.957 83.964C232.957 81.5281 234.931 79.5535 237.367 79.5535V79.5535C239.803 79.5535 241.778 81.5281 241.778 83.964V122.324C241.778 126.624 241.037 129.07 238.368 130.552C236.373 131.636 233.764 132.105 230.508 132.264C228.713 132.352 227.211 131.177 226.708 129.452V129.452C225.912 126.726 227.906 123.471 230.746 123.443C231.113 123.439 231.411 123.436 231.622 123.436C232.586 123.436 232.957 123.214 232.957 122.25V83.964ZM246.29 102.169C245.337 99.813 246.499 97.0797 248.91 96.276V96.276C250.902 95.6121 253.088 96.5048 253.944 98.4218C256.479 104.097 258.59 110.49 259.777 115.799C260.236 117.85 259.017 119.861 257.032 120.551V120.551C254.41 121.463 251.591 119.723 250.979 117.015C249.929 112.368 248.251 107.021 246.29 102.169ZM252.452 77.021C252.452 76.4136 252.944 75.9213 253.552 75.9213V75.9213C253.609 75.9213 253.667 75.9168 253.723 75.9078L254.231 75.8276C254.771 75.7424 255.321 75.7479 255.859 75.844L256.591 75.9747C259.2 76.4407 260.971 78.8946 260.529 81.508C259.999 84.6412 259.41 87.7729 258.863 90.4983C258.443 92.5866 256.428 93.9409 254.33 93.5742V93.5742C252.183 93.1989 250.737 91.1613 251.037 89.002C251.552 85.3017 252.079 80.8401 252.452 77.1073V77.021ZM205.438 66.8224C206.333 64.6797 208.688 63.4912 210.906 64.1782V64.1782C213.295 64.918 214.569 67.5223 213.589 69.8225C209.76 78.8102 204.636 87.8197 199.098 94.9062C197.173 97.3689 193.281 96.5975 191.795 93.8482V93.8482C190.801 92.0113 191.061 89.7437 192.433 88.1692C197.443 82.4171 202.119 74.7699 205.438 66.8224ZM199.748 85.4408C199.748 84.1392 200.265 82.891 201.185 81.9706L208.146 75.01C208.175 74.9811 208.222 74.9811 208.251 75.01V75.01C208.265 75.0239 208.273 75.0428 208.273 75.0624V127.921C208.273 130.275 206.364 132.183 204.01 132.183V132.183C201.656 132.183 199.748 130.275 199.748 127.921V85.4408Z" fill="#6B95F5"/>
<path d="M188.064 184.183C186.139 184.183 184.61 183.592 183.477 182.41C182.356 181.216 181.795 179.522 181.795 177.329C181.795 175.16 182.337 173.478 183.422 172.284C184.519 171.078 186.048 170.475 188.01 170.475C188.911 170.475 189.667 170.529 190.276 170.639C190.568 170.688 190.812 170.834 191.007 171.078C191.202 171.321 191.3 171.596 191.3 171.9V172.046C191.3 172.302 191.19 172.503 190.971 172.65C190.763 172.796 190.538 172.838 190.294 172.778C189.697 172.619 189.027 172.54 188.284 172.54C187.077 172.54 186.127 172.954 185.432 173.783C184.75 174.611 184.409 175.793 184.409 177.329C184.409 178.852 184.762 180.034 185.469 180.875C186.188 181.703 187.144 182.117 188.339 182.117C189.143 182.117 189.831 182.044 190.404 181.898C190.648 181.837 190.873 181.88 191.08 182.026C191.3 182.172 191.409 182.373 191.409 182.629V182.757C191.409 183.062 191.312 183.336 191.117 183.58C190.934 183.811 190.69 183.951 190.386 184C189.691 184.122 188.917 184.183 188.064 184.183ZM195.134 184C194.854 184 194.61 183.896 194.403 183.689C194.208 183.482 194.11 183.238 194.11 182.958V171.334C194.11 171.053 194.208 170.81 194.403 170.602C194.61 170.395 194.854 170.292 195.134 170.292H195.5C195.78 170.292 196.023 170.395 196.231 170.602C196.438 170.81 196.541 171.053 196.541 171.334V175.574C196.541 175.586 196.547 175.592 196.56 175.592C196.572 175.592 196.584 175.586 196.596 175.574C197.449 174.733 198.387 174.313 199.411 174.313C200.52 174.313 201.324 174.63 201.824 175.263C202.323 175.897 202.573 176.981 202.573 178.517V182.958C202.573 183.238 202.469 183.482 202.262 183.689C202.055 183.896 201.811 184 201.531 184H201.239C200.958 184 200.715 183.896 200.508 183.689C200.3 183.482 200.197 183.238 200.197 182.958V178.882C200.197 177.822 200.081 177.122 199.85 176.78C199.63 176.439 199.21 176.269 198.588 176.269C198.101 176.269 197.638 176.488 197.199 176.927C196.761 177.365 196.541 177.834 196.541 178.334V182.958C196.541 183.238 196.438 183.482 196.231 183.689C196.023 183.896 195.78 184 195.5 184H195.134ZM209.474 179.431C207.732 179.431 206.861 179.967 206.861 181.039C206.861 181.429 206.97 181.746 207.19 181.989C207.421 182.233 207.714 182.355 208.067 182.355C208.761 182.355 209.322 182.142 209.748 181.715C210.175 181.277 210.388 180.68 210.388 179.924V179.595C210.388 179.485 210.333 179.431 210.224 179.431H209.474ZM207.409 184.183C206.58 184.183 205.892 183.915 205.344 183.379C204.807 182.83 204.539 182.123 204.539 181.258C204.539 180.198 204.941 179.376 205.746 178.791C206.562 178.206 207.805 177.914 209.474 177.914H210.224C210.333 177.914 210.388 177.859 210.388 177.749V177.603C210.388 177.042 210.254 176.652 209.986 176.433C209.718 176.202 209.243 176.086 208.56 176.086C207.854 176.086 206.989 176.214 205.965 176.47C205.746 176.531 205.545 176.494 205.362 176.36C205.179 176.214 205.088 176.025 205.088 175.793C205.088 175.513 205.173 175.263 205.344 175.044C205.514 174.812 205.734 174.672 206.002 174.624C206.928 174.416 207.799 174.313 208.615 174.313C210.175 174.313 211.266 174.593 211.887 175.154C212.508 175.714 212.819 176.695 212.819 178.096V182.958C212.819 183.238 212.716 183.482 212.508 183.689C212.313 183.896 212.076 184 211.796 184H211.595C211.302 184 211.052 183.903 210.845 183.708C210.638 183.5 210.528 183.251 210.516 182.958V182.702C210.516 182.69 210.51 182.684 210.498 182.684C210.473 182.684 210.461 182.69 210.461 182.702C209.718 183.689 208.701 184.183 207.409 184.183ZM216.284 184C216.003 184 215.76 183.896 215.552 183.689C215.345 183.482 215.242 183.238 215.242 182.958V175.537C215.242 175.257 215.345 175.013 215.552 174.806C215.76 174.599 216.003 174.496 216.284 174.496H216.649C216.929 174.496 217.173 174.599 217.38 174.806C217.587 175.013 217.691 175.257 217.691 175.537V176.305C217.691 176.317 217.697 176.323 217.709 176.323C217.734 176.323 217.746 176.317 217.746 176.305C218.099 175.818 218.562 175.422 219.135 175.117C219.708 174.8 220.335 174.605 221.018 174.532C221.273 174.508 221.493 174.593 221.675 174.788C221.858 174.971 221.95 175.19 221.95 175.446C221.95 175.702 221.858 175.921 221.675 176.104C221.493 176.287 221.273 176.39 221.018 176.415C218.861 176.585 217.782 177.682 217.782 179.705V182.958C217.782 183.238 217.679 183.482 217.472 183.689C217.264 183.896 217.021 184 216.741 184H216.284ZM228.038 179.431C226.295 179.431 225.424 179.967 225.424 181.039C225.424 181.429 225.534 181.746 225.753 181.989C225.984 182.233 226.277 182.355 226.63 182.355C227.325 182.355 227.885 182.142 228.312 181.715C228.738 181.277 228.951 180.68 228.951 179.924V179.595C228.951 179.485 228.897 179.431 228.787 179.431H228.038ZM225.972 184.183C225.144 184.183 224.455 183.915 223.907 183.379C223.371 182.83 223.103 182.123 223.103 181.258C223.103 180.198 223.505 179.376 224.309 178.791C225.125 178.206 226.368 177.914 228.038 177.914H228.787C228.897 177.914 228.951 177.859 228.951 177.749V177.603C228.951 177.042 228.817 176.652 228.549 176.433C228.281 176.202 227.806 176.086 227.124 176.086C226.417 176.086 225.552 176.214 224.528 176.47C224.309 176.531 224.108 176.494 223.925 176.36C223.742 176.214 223.651 176.025 223.651 175.793C223.651 175.513 223.736 175.263 223.907 175.044C224.077 174.812 224.297 174.672 224.565 174.624C225.491 174.416 226.362 174.313 227.178 174.313C228.738 174.313 229.829 174.593 230.45 175.154C231.072 175.714 231.382 176.695 231.382 178.096V182.958C231.382 183.238 231.279 183.482 231.072 183.689C230.877 183.896 230.639 184 230.359 184H230.158C229.865 184 229.616 183.903 229.408 183.708C229.201 183.5 229.092 183.251 229.079 182.958V182.702C229.079 182.69 229.073 182.684 229.061 182.684C229.037 182.684 229.025 182.69 229.025 182.702C228.281 183.689 227.264 184.183 225.972 184.183ZM237.881 184.183C236.37 184.183 235.206 183.768 234.39 182.94C233.573 182.099 233.165 180.868 233.165 179.248C233.165 177.652 233.555 176.433 234.335 175.592C235.127 174.739 236.248 174.313 237.698 174.313C238.344 174.313 238.965 174.356 239.562 174.441C239.843 174.477 240.074 174.605 240.257 174.825C240.44 175.044 240.531 175.3 240.531 175.592C240.531 175.836 240.434 176.031 240.239 176.177C240.056 176.323 239.843 176.372 239.599 176.323C239.124 176.226 238.594 176.177 238.009 176.177C237.241 176.177 236.668 176.421 236.291 176.908C235.913 177.396 235.724 178.176 235.724 179.248C235.724 180.344 235.925 181.13 236.327 181.606C236.729 182.081 237.351 182.318 238.192 182.318C238.789 182.318 239.307 182.264 239.745 182.154C239.977 182.093 240.184 182.136 240.367 182.282C240.562 182.428 240.659 182.617 240.659 182.849C240.659 183.141 240.568 183.397 240.385 183.616C240.214 183.836 239.989 183.97 239.709 184.018C239.087 184.128 238.478 184.183 237.881 184.183ZM243.507 176.634C243.263 176.634 243.056 176.549 242.886 176.378C242.715 176.195 242.63 175.982 242.63 175.739C242.63 175.495 242.715 175.288 242.886 175.117C243.056 174.946 243.263 174.861 243.507 174.861H244.384C244.494 174.861 244.549 174.806 244.549 174.697V172.43C244.549 172.15 244.646 171.906 244.841 171.699C245.048 171.492 245.292 171.388 245.572 171.388H245.938C246.218 171.388 246.462 171.492 246.669 171.699C246.876 171.906 246.98 172.15 246.98 172.43V174.697C246.98 174.806 247.035 174.861 247.144 174.861H249.228C249.472 174.861 249.679 174.946 249.849 175.117C250.032 175.288 250.123 175.495 250.123 175.739C250.123 175.982 250.032 176.195 249.849 176.378C249.679 176.549 249.472 176.634 249.228 176.634H247.144C247.035 176.634 246.98 176.683 246.98 176.78V180.472C246.98 181.264 247.065 181.776 247.236 182.008C247.406 182.239 247.76 182.355 248.296 182.355C248.588 182.355 248.807 182.343 248.954 182.318C249.197 182.294 249.411 182.349 249.593 182.483C249.776 182.617 249.868 182.8 249.868 183.031C249.868 183.299 249.776 183.543 249.593 183.762C249.423 183.97 249.21 184.085 248.954 184.11C248.418 184.158 248.015 184.183 247.747 184.183C246.565 184.183 245.737 183.933 245.262 183.433C244.786 182.922 244.549 182.014 244.549 180.71V176.78C244.549 176.683 244.494 176.634 244.384 176.634H243.507ZM256.35 176.013C255.729 176.013 255.247 176.189 254.906 176.543C254.577 176.884 254.37 177.438 254.285 178.206C254.285 178.303 254.334 178.352 254.431 178.352H258.013C258.111 178.352 258.16 178.303 258.16 178.206C258.111 176.744 257.508 176.013 256.35 176.013ZM256.807 184.183C255.211 184.183 253.98 183.768 253.115 182.94C252.262 182.099 251.836 180.868 251.836 179.248C251.836 177.639 252.219 176.415 252.987 175.574C253.755 174.733 254.864 174.313 256.314 174.313C259.019 174.313 260.408 175.848 260.481 178.919C260.493 179.211 260.39 179.455 260.17 179.65C259.951 179.845 259.695 179.942 259.403 179.942H254.413C254.303 179.942 254.26 179.997 254.285 180.107C254.37 180.923 254.638 181.52 255.089 181.898C255.552 182.264 256.222 182.446 257.1 182.446C257.648 182.446 258.257 182.355 258.927 182.172C259.147 182.111 259.348 182.148 259.53 182.282C259.725 182.416 259.823 182.599 259.823 182.83C259.823 183.11 259.738 183.36 259.567 183.58C259.409 183.787 259.195 183.915 258.927 183.963C258.245 184.11 257.538 184.183 256.807 184.183ZM263.495 184C263.215 184 262.971 183.896 262.764 183.689C262.557 183.482 262.453 183.238 262.453 182.958V175.537C262.453 175.257 262.557 175.013 262.764 174.806C262.971 174.599 263.215 174.496 263.495 174.496H263.86C264.141 174.496 264.384 174.599 264.592 174.806C264.799 175.013 264.902 175.257 264.902 175.537V176.305C264.902 176.317 264.908 176.323 264.921 176.323C264.945 176.323 264.957 176.317 264.957 176.305C265.31 175.818 265.773 175.422 266.346 175.117C266.919 174.8 267.546 174.605 268.229 174.532C268.485 174.508 268.704 174.593 268.887 174.788C269.07 174.971 269.161 175.19 269.161 175.446C269.161 175.702 269.07 175.921 268.887 176.104C268.704 176.287 268.485 176.39 268.229 176.415C266.072 176.585 264.994 177.682 264.994 179.705V182.958C264.994 183.238 264.89 183.482 264.683 183.689C264.476 183.896 264.232 184 263.952 184H263.495Z" fill="black"/>
</svg>
