<svg width="24" height="24" viewBox="0 0 24 24" fill="none" xmlns="http://www.w3.org/2000/svg">
<path d="M16.8751 21.7505C16.8751 22.0489 16.7566 22.3351 16.5456 22.546C16.3346 22.757 16.0485 22.8755 15.7501 22.8755H8.25013C7.95176 22.8755 7.66561 22.757 7.45463 22.546C7.24365 22.3351 7.12513 22.0489 7.12513 21.7505C7.12513 21.4522 7.24365 21.166 7.45463 20.955C7.66561 20.7441 7.95176 20.6255 8.25013 20.6255H15.7501C16.0485 20.6255 16.3346 20.7441 16.5456 20.955C16.7566 21.166 16.8751 21.4522 16.8751 21.7505ZM20.6251 9.75054C20.6285 11.0576 20.3333 12.3482 19.7618 13.5237C19.1904 14.6992 18.3579 15.7286 17.3279 16.5333C17.1885 16.6396 17.0751 16.7764 16.9966 16.9332C16.9182 17.09 16.8766 17.2627 16.8751 17.438V17.6255C16.8751 18.1228 16.6776 18.5997 16.326 18.9514C15.9743 19.303 15.4974 19.5005 15.0001 19.5005H9.00013C8.50285 19.5005 8.02593 19.303 7.6743 18.9514C7.32267 18.5997 7.12513 18.1228 7.12513 17.6255V17.438C7.12492 17.2656 7.08508 17.0955 7.00868 16.9409C6.93228 16.7863 6.82136 16.6514 6.6845 16.5465C5.65735 15.7464 4.82562 14.7232 4.25228 13.5542C3.67893 12.3853 3.37898 11.1013 3.37513 9.79929C3.34981 5.12772 7.12513 1.23804 11.7929 1.12554C12.9429 1.0979 14.0868 1.30058 15.1572 1.72164C16.2277 2.1427 17.2031 2.77363 18.0261 3.5773C18.8491 4.38098 19.503 5.34115 19.9493 6.40132C20.3957 7.46149 20.6255 8.60024 20.6251 9.75054ZM18.3751 9.75054C18.3754 8.90018 18.2055 8.05837 17.8755 7.27466C17.5455 6.49095 17.062 5.78119 16.4536 5.18715C15.8451 4.59311 15.124 4.1268 14.3326 3.81567C13.5412 3.50455 12.6955 3.3549 11.8454 3.37554C8.39638 3.45804 5.60638 6.33335 5.62513 9.78616C5.62834 10.7484 5.85029 11.6974 6.27419 12.5613C6.6981 13.4252 7.31286 14.1814 8.072 14.7727C8.45445 15.0679 8.7688 15.442 8.99367 15.8696C9.21854 16.2972 9.34865 16.7682 9.37513 17.2505H14.6345C14.6615 16.7672 14.7918 16.2953 15.0166 15.8666C15.2414 15.4379 15.5554 15.0623 15.9376 14.7652C16.6989 14.1701 17.3143 13.409 17.7367 12.54C18.1592 11.6709 18.3775 10.7168 18.3751 9.75054ZM16.4936 9.25179C16.394 8.41 16.0612 7.6128 15.5326 6.95017C15.0039 6.28754 14.3006 5.78587 13.502 5.50179C13.2229 5.41058 12.9191 5.43214 12.6557 5.56186C12.3922 5.69158 12.1899 5.91918 12.092 6.19604C11.9941 6.4729 12.0083 6.77708 12.1316 7.04359C12.2549 7.31011 12.4776 7.51784 12.752 7.62241C13.1533 7.76308 13.5073 8.01324 13.7739 8.34459C14.0404 8.67594 14.209 9.07527 14.2604 9.49741C14.2933 9.79404 14.4426 10.0655 14.6755 10.252C14.7909 10.3444 14.9233 10.4131 15.0652 10.4543C15.2071 10.4955 15.3557 10.5083 15.5026 10.4921C15.6495 10.4758 15.7917 10.4308 15.9212 10.3596C16.0507 10.2884 16.1649 10.1924 16.2572 10.077C16.3496 9.96166 16.4183 9.82925 16.4595 9.68734C16.5007 9.54542 16.5136 9.39679 16.4973 9.24991L16.4936 9.25179Z" fill="#F57C00"/>
</svg>
