<svg width="48" height="49" viewBox="0 0 48 49" fill="none" xmlns="http://www.w3.org/2000/svg">
<path fill-rule="evenodd" clip-rule="evenodd" d="M24.188 12.7731C24.0881 6.28415 18.7967 1.05469 12.284 1.05469C5.70887 1.05469 0.378643 6.38491 0.378643 12.9601C0.378643 18.7437 4.50281 23.5641 9.97073 24.6409C4.31592 25.5652 0.000488281 30.4735 0.000488281 36.3898C0.000488281 42.9649 5.33071 48.2951 11.9059 48.2951C18.4172 48.2951 23.7076 43.0679 23.8098 36.5809C23.8108 36.5809 23.8119 36.5809 23.813 36.581C23.9152 43.0679 29.2056 48.2951 35.7169 48.2951C42.2921 48.2951 47.6223 42.9649 47.6223 36.3898C47.6223 30.6061 43.4982 25.7857 38.0303 24.709C43.6851 23.7847 48.0006 18.8763 48.0006 12.9601C48.0006 6.38491 42.6703 1.05469 36.0952 1.05469C29.5824 1.05469 24.2911 6.28418 24.1912 12.7731L24.188 12.7731Z" fill="#FF9800"/>
</svg>
