<svg width="58" height="157" viewBox="0 0 58 157" fill="none" xmlns="http://www.w3.org/2000/svg">
<path d="M14.0134 111.736C12.6972 111.736 11.5527 111.25 10.5799 110.277C9.60702 109.304 9.12061 108.16 9.12061 106.844V71.9934C9.12061 70.6772 9.60702 69.5327 10.5799 68.5598C11.5527 67.587 12.6972 67.1006 14.0134 67.1006H15.1293C16.5027 67.1006 17.6472 67.587 18.5628 68.5598C19.5356 69.4754 20.0507 70.6199 20.1079 71.9934V72.5942C20.1079 72.6514 20.1365 72.6801 20.1937 72.6801C20.251 72.6801 20.3082 72.6514 20.3654 72.5942C24.2567 68.3595 28.8062 66.2422 34.0137 66.2422C39.2212 66.2422 42.9981 67.7301 45.3443 70.7058C47.7478 73.6243 48.9496 78.5171 48.9496 85.3841V106.844C48.9496 108.16 48.4631 109.304 47.4903 110.277C46.5175 111.25 45.373 111.736 44.0568 111.736H42.5975C41.2813 111.736 40.1368 111.25 39.164 110.277C38.2484 109.304 37.7906 108.16 37.7906 106.844V86.2425C37.7906 81.9506 37.2183 79.0321 36.0738 77.487C34.9865 75.8847 33.0122 75.0835 30.151 75.0835C27.8047 75.0835 25.6302 76.085 23.6273 78.0879C21.6244 80.0908 20.6229 82.2367 20.6229 84.5257V106.844C20.6229 108.16 20.1365 109.304 19.1637 110.277C18.1908 111.25 17.0463 111.736 15.7302 111.736H14.0134Z" fill="#FFDA13"/>
<path d="M2.05127 117.736V123.563C2.05127 124.789 3.04509 125.783 4.27104 125.783H53.7997C55.0256 125.783 56.0194 124.789 56.0194 123.563V117.736" stroke="#FFDA13" stroke-width="3.32966" stroke-linecap="round"/>
<path d="M6.35221 150.783C6.09777 150.783 5.87652 150.689 5.68846 150.501C5.50039 150.313 5.40636 150.092 5.40636 149.837V139.616C5.40636 139.361 5.50039 139.14 5.68846 138.952C5.87652 138.764 6.09777 138.67 6.35221 138.67H7.01596C7.2704 138.67 7.49165 138.764 7.67972 138.952C7.86778 139.14 7.96181 139.361 7.96181 139.616V149.837C7.96181 150.092 7.86778 150.313 7.67972 150.501C7.49165 150.689 7.2704 150.783 7.01596 150.783H6.35221ZM11.6882 150.783C11.4337 150.783 11.2125 150.689 11.0244 150.501C10.8364 150.313 10.7423 150.092 10.7423 149.837V143.1C10.7423 142.846 10.8364 142.625 11.0244 142.436C11.2125 142.248 11.4337 142.154 11.6882 142.154H11.9039C12.1694 142.154 12.3906 142.248 12.5676 142.436C12.7557 142.613 12.8553 142.835 12.8663 143.1V143.216C12.8663 143.227 12.8719 143.233 12.8829 143.233C12.894 143.233 12.9051 143.227 12.9161 143.216C13.6684 142.398 14.5478 141.988 15.5545 141.988C16.5612 141.988 17.2914 142.276 17.7449 142.851C18.2096 143.416 18.4419 144.361 18.4419 145.689V149.837C18.4419 150.092 18.3478 150.313 18.1598 150.501C17.9717 150.689 17.7505 150.783 17.496 150.783H17.2139C16.9595 150.783 16.7382 150.689 16.5502 150.501C16.3732 150.313 16.2847 150.092 16.2847 149.837V145.855C16.2847 145.025 16.174 144.461 15.9528 144.162C15.7426 143.853 15.3609 143.698 14.8078 143.698C14.3542 143.698 13.9339 143.891 13.5467 144.278C13.1595 144.666 12.9659 145.08 12.9659 145.523V149.837C12.9659 150.092 12.8719 150.313 12.6838 150.501C12.4957 150.689 12.2745 150.783 12.02 150.783H11.6882ZM22.0872 150.783C21.8328 150.783 21.6115 150.689 21.4234 150.501C21.2354 150.313 21.1413 150.092 21.1413 149.837V143.1C21.1413 142.846 21.2354 142.625 21.4234 142.436C21.6115 142.248 21.8328 142.154 22.0872 142.154H22.5186C22.7731 142.154 22.9943 142.248 23.1824 142.436C23.3705 142.625 23.4645 142.846 23.4645 143.1V149.837C23.4645 150.092 23.3705 150.313 23.1824 150.501C22.9943 150.689 22.7731 150.783 22.5186 150.783H22.0872ZM22.0872 140.329C21.8328 140.329 21.6115 140.235 21.4234 140.047C21.2354 139.859 21.1413 139.638 21.1413 139.383V139.284C21.1413 139.029 21.2354 138.808 21.4234 138.62C21.6115 138.432 21.8328 138.338 22.0872 138.338H22.5186C22.7731 138.338 22.9943 138.432 23.1824 138.62C23.3705 138.808 23.4645 139.029 23.4645 139.284V139.383C23.4645 139.638 23.3705 139.859 23.1824 140.047C22.9943 140.235 22.7731 140.329 22.5186 140.329H22.0872ZM26.6321 144.096C26.4108 144.096 26.2228 144.018 26.0679 143.864C25.913 143.698 25.8356 143.504 25.8356 143.283C25.8356 143.062 25.913 142.873 26.0679 142.719C26.2228 142.564 26.4108 142.486 26.6321 142.486H27.4286C27.5282 142.486 27.5779 142.436 27.5779 142.337V140.279C27.5779 140.025 27.6664 139.804 27.8434 139.616C28.0315 139.427 28.2528 139.333 28.5072 139.333H28.8391C29.0935 139.333 29.3148 139.427 29.5028 139.616C29.6909 139.804 29.7849 140.025 29.7849 140.279V142.337C29.7849 142.436 29.8347 142.486 29.9343 142.486H31.826C32.0472 142.486 32.2353 142.564 32.3902 142.719C32.5561 142.873 32.6391 143.062 32.6391 143.283C32.6391 143.504 32.5561 143.698 32.3902 143.864C32.2353 144.018 32.0472 144.096 31.826 144.096H29.9343C29.8347 144.096 29.7849 144.14 29.7849 144.229V147.581C29.7849 148.3 29.8624 148.764 30.0172 148.974C30.1721 149.185 30.4929 149.29 30.9797 149.29C31.2452 149.29 31.4443 149.279 31.5771 149.257C31.7983 149.234 31.9919 149.284 32.1578 149.406C32.3238 149.528 32.4068 149.694 32.4068 149.904C32.4068 150.147 32.3238 150.368 32.1578 150.567C32.003 150.756 31.8094 150.861 31.5771 150.883C31.0903 150.927 30.7252 150.949 30.4819 150.949C29.4088 150.949 28.6565 150.722 28.2251 150.269C27.7937 149.804 27.5779 148.98 27.5779 147.796V144.229C27.5779 144.14 27.5282 144.096 27.4286 144.096H26.6321ZM36.3799 150.783C36.1255 150.783 35.9043 150.689 35.7162 150.501C35.5281 150.313 35.4341 150.092 35.4341 149.837V143.1C35.4341 142.846 35.5281 142.625 35.7162 142.436C35.9043 142.248 36.1255 142.154 36.3799 142.154H36.8114C37.0658 142.154 37.2871 142.248 37.4751 142.436C37.6632 142.625 37.7572 142.846 37.7572 143.1V149.837C37.7572 150.092 37.6632 150.313 37.4751 150.501C37.2871 150.689 37.0658 150.783 36.8114 150.783H36.3799ZM36.3799 140.329C36.1255 140.329 35.9043 140.235 35.7162 140.047C35.5281 139.859 35.4341 139.638 35.4341 139.383V139.284C35.4341 139.029 35.5281 138.808 35.7162 138.62C35.9043 138.432 36.1255 138.338 36.3799 138.338H36.8114C37.0658 138.338 37.2871 138.432 37.4751 138.62C37.6632 138.808 37.7572 139.029 37.7572 139.284V139.383C37.7572 139.638 37.6632 139.859 37.4751 140.047C37.2871 140.235 37.0658 140.329 36.8114 140.329H36.3799ZM44.6087 146.635C43.0267 146.635 42.2358 147.121 42.2358 148.095C42.2358 148.449 42.3353 148.737 42.5344 148.958C42.7446 149.179 43.0101 149.29 43.331 149.29C43.9615 149.29 44.4704 149.096 44.8576 148.709C45.2448 148.311 45.4384 147.769 45.4384 147.083V146.784C45.4384 146.685 45.3886 146.635 45.289 146.635H44.6087ZM42.7336 150.949C41.9813 150.949 41.3563 150.706 40.8585 150.219C40.3717 149.721 40.1283 149.08 40.1283 148.294C40.1283 147.332 40.4934 146.585 41.2235 146.054C41.9647 145.523 43.0931 145.257 44.6087 145.257H45.289C45.3886 145.257 45.4384 145.208 45.4384 145.108V144.975C45.4384 144.466 45.3167 144.112 45.0733 143.913C44.8299 143.703 44.3985 143.598 43.779 143.598C43.1374 143.598 42.3519 143.714 41.4227 143.947C41.2235 144.002 41.041 143.969 40.8751 143.847C40.7091 143.714 40.6262 143.543 40.6262 143.333C40.6262 143.078 40.7036 142.851 40.8585 142.652C41.0133 142.442 41.2125 142.315 41.4558 142.271C42.2966 142.082 43.0876 141.988 43.8288 141.988C45.2448 141.988 46.2349 142.243 46.7991 142.752C47.3633 143.261 47.6454 144.151 47.6454 145.423V149.837C47.6454 150.092 47.5513 150.313 47.3633 150.501C47.1863 150.689 46.9705 150.783 46.7161 150.783H46.5336C46.2681 150.783 46.0413 150.695 45.8532 150.518C45.6652 150.33 45.5656 150.103 45.5545 149.837V149.605C45.5545 149.594 45.549 149.588 45.5379 149.588C45.5158 149.588 45.5047 149.594 45.5047 149.605C44.8299 150.501 43.9062 150.949 42.7336 150.949ZM51.2885 150.783C51.034 150.783 50.8128 150.689 50.6247 150.501C50.4367 150.313 50.3426 150.092 50.3426 149.837V139.284C50.3426 139.029 50.4367 138.808 50.6247 138.62C50.8128 138.432 51.034 138.338 51.2885 138.338H51.7199C51.9744 138.338 52.1956 138.432 52.3837 138.62C52.5717 138.808 52.6658 139.029 52.6658 139.284V149.837C52.6658 150.092 52.5717 150.313 52.3837 150.501C52.1956 150.689 51.9744 150.783 51.7199 150.783H51.2885Z" fill="#FFDA13"/>
</svg>
