<svg width="58" height="157" viewBox="0 0 58 157" fill="none" xmlns="http://www.w3.org/2000/svg">
<path d="M18.5846 52.3643L13.4344 45.3256C12.8049 44.5245 12.719 43.6947 13.1768 42.8363C13.6346 41.9207 14.3786 41.4629 15.4086 41.4629H17.8121C19.3 41.4629 20.702 41.8349 22.0182 42.5788C23.3344 43.3227 24.393 44.3242 25.1942 45.5831L28.9711 51.7635C28.9711 51.8207 29.0283 51.8493 29.1427 51.8493C29.2572 51.8493 29.3144 51.8207 29.3144 51.7635L33.0913 45.5831C33.8352 44.3242 34.8653 43.3227 36.1815 42.5788C37.4977 41.8349 38.9283 41.4629 40.4734 41.4629H42.8769C43.9069 41.4629 44.6222 41.9207 45.0228 42.8363C45.4806 43.6947 45.4234 44.5245 44.8511 45.3256L39.7009 52.3643C37.7552 54.9967 35.18 56.3129 31.9754 56.3129H26.3101C23.0482 56.3129 20.4731 54.9967 18.5846 52.3643Z" fill="#469001"/>
<path d="M12.0779 9.76255C11.8235 9.76255 11.6022 9.67405 11.4142 9.49705C11.2261 9.30898 11.1321 9.08773 11.1321 8.83329V8.78351C11.1321 8.52907 11.2261 8.30782 11.4142 8.11976C11.6022 7.93169 11.8235 7.83766 12.0779 7.83766H19.1469C19.4013 7.83766 19.6226 7.93169 19.8107 8.11976C19.9987 8.30782 20.0927 8.52907 20.0927 8.78351V8.83329C20.0927 9.08773 19.9987 9.30898 19.8107 9.49705C19.6226 9.67405 19.4013 9.76255 19.1469 9.76255H16.9233C16.8348 9.76255 16.7906 9.81233 16.7906 9.91189V19.0053C16.7906 19.2598 16.6965 19.481 16.5085 19.6691C16.3204 19.8571 16.0992 19.9512 15.8447 19.9512H15.3801C15.1257 19.9512 14.9044 19.8571 14.7163 19.6691C14.5283 19.481 14.4342 19.2598 14.4342 19.0053V9.91189C14.4342 9.81233 14.39 9.76255 14.3015 9.76255H12.0779ZM25.7279 13.463C25.4071 12.9983 24.9203 12.766 24.2677 12.766C23.615 12.766 23.1227 12.9983 22.7908 13.463C22.47 13.9165 22.3096 14.6411 22.3096 15.6368C22.3096 16.6324 22.47 17.3625 22.7908 17.8272C23.1227 18.2807 23.615 18.5075 24.2677 18.5075C24.9203 18.5075 25.4071 18.2807 25.7279 17.8272C26.0598 17.3625 26.2257 16.6324 26.2257 15.6368C26.2257 14.6411 26.0598 13.9165 25.7279 13.463ZM27.3541 18.9555C26.624 19.7299 25.5952 20.1171 24.2677 20.1171C22.9401 20.1171 21.9058 19.7299 21.1646 18.9555C20.4345 18.1701 20.0694 17.0638 20.0694 15.6368C20.0694 14.2097 20.4345 13.109 21.1646 12.3346C21.9058 11.5492 22.9401 11.1564 24.2677 11.1564C25.5952 11.1564 26.624 11.5492 27.3541 12.3346C28.0953 13.109 28.4659 14.2097 28.4659 15.6368C28.4659 17.0638 28.0953 18.1701 27.3541 18.9555ZM31.1245 19.9512C30.8701 19.9512 30.6489 19.8571 30.4608 19.6691C30.2727 19.481 30.1787 19.2598 30.1787 19.0053V12.2682C30.1787 12.0138 30.2727 11.7925 30.4608 11.6045C30.6489 11.4164 30.8701 11.3224 31.1245 11.3224H31.3403C31.6058 11.3224 31.827 11.4164 32.004 11.6045C32.1921 11.7815 32.2916 12.0027 32.3027 12.2682V12.3844C32.3027 12.3954 32.3082 12.401 32.3193 12.401C32.3304 12.401 32.3414 12.3954 32.3525 12.3844C33.1047 11.5657 33.9842 11.1564 34.9909 11.1564C35.9976 11.1564 36.7277 11.4441 37.1813 12.0193C37.6459 12.5835 37.8782 13.5294 37.8782 14.8569V19.0053C37.8782 19.2598 37.7842 19.481 37.5961 19.6691C37.4081 19.8571 37.1868 19.9512 36.9324 19.9512H36.6503C36.3959 19.9512 36.1746 19.8571 35.9865 19.6691C35.8095 19.481 35.721 19.2598 35.721 19.0053V15.0228C35.721 14.1931 35.6104 13.6289 35.3892 13.3302C35.179 13.0205 34.7973 12.8656 34.2442 12.8656C33.7906 12.8656 33.3702 13.0592 32.9831 13.4464C32.5959 13.8336 32.4023 14.2484 32.4023 14.6909V19.0053C32.4023 19.2598 32.3082 19.481 32.1202 19.6691C31.9321 19.8571 31.7109 19.9512 31.4564 19.9512H31.1245ZM43.5978 12.6997C43.0336 12.6997 42.5966 12.8601 42.2869 13.1809C41.9882 13.4906 41.8001 13.994 41.7227 14.6909C41.7227 14.7794 41.7669 14.8237 41.8555 14.8237H45.1078C45.1963 14.8237 45.2406 14.7794 45.2406 14.6909C45.1963 13.3634 44.6487 12.6997 43.5978 12.6997ZM44.0127 20.1171C42.5635 20.1171 41.4461 19.741 40.6607 18.9887C39.8863 18.2254 39.4991 17.1081 39.4991 15.6368C39.4991 14.1765 39.8476 13.0647 40.5445 12.3014C41.2415 11.5381 42.2482 11.1564 43.5646 11.1564C46.0205 11.1564 47.2816 12.5503 47.348 15.3381C47.3591 15.6036 47.265 15.8248 47.0659 16.0018C46.8668 16.1788 46.6345 16.2673 46.369 16.2673H41.8389C41.7393 16.2673 41.7006 16.3171 41.7227 16.4167C41.8001 17.1579 42.0435 17.6999 42.4528 18.0429C42.8732 18.3748 43.4816 18.5407 44.2782 18.5407C44.776 18.5407 45.3291 18.4577 45.9375 18.2918C46.1367 18.2365 46.3192 18.2697 46.4851 18.3914C46.6621 18.513 46.7506 18.679 46.7506 18.8892C46.7506 19.1436 46.6732 19.3704 46.5183 19.5695C46.3745 19.7576 46.1809 19.8737 45.9375 19.918C45.318 20.0507 44.6764 20.1171 44.0127 20.1171Z" fill="#469001"/>
<path d="M2.06641 37.5781V31.7512C2.06641 30.5253 3.06023 29.5315 4.28618 29.5315H53.8148C55.0407 29.5315 56.0346 30.5253 56.0346 31.7512V37.5781" stroke="#469001" stroke-width="3.32966" stroke-linecap="round"/>
<path d="M28.0466 66.3145H30.2784C31.5946 66.3145 32.7391 66.8009 33.7119 67.7737C34.6847 68.7465 35.1712 69.891 35.1712 71.2072V106.058C35.1712 107.374 34.6847 108.518 33.7119 109.491C32.7391 110.464 31.5946 110.95 30.2784 110.95H28.0466C26.7304 110.95 25.5859 110.464 24.6131 109.491C23.6402 108.518 23.1538 107.374 23.1538 106.058V71.2072C23.1538 69.891 23.6402 68.7465 24.6131 67.7737C25.5859 66.8009 26.7304 66.3145 28.0466 66.3145Z" fill="#F57C00"/>
<path d="M11.6748 150.205C11.4203 150.205 11.1991 150.111 11.011 149.923C10.834 149.735 10.7455 149.514 10.7455 149.259V139.037C10.7455 138.783 10.834 138.562 11.011 138.374C11.1991 138.186 11.4203 138.092 11.6748 138.092H17.1507C17.4052 138.092 17.6264 138.186 17.8145 138.374C18.0025 138.562 18.0966 138.783 18.0966 139.037C18.0966 139.292 18.0025 139.513 17.8145 139.701C17.6264 139.878 17.4052 139.967 17.1507 139.967H13.2014C13.1129 139.967 13.0686 140.016 13.0686 140.116V143.02C13.0686 143.108 13.1129 143.153 13.2014 143.153H16.8686C17.112 143.153 17.3222 143.241 17.4992 143.418C17.6762 143.584 17.7647 143.794 17.7647 144.049C17.7647 144.303 17.6762 144.519 17.4992 144.696C17.3222 144.862 17.112 144.945 16.8686 144.945H13.2014C13.1129 144.945 13.0686 144.989 13.0686 145.078V149.259C13.0686 149.514 12.9746 149.735 12.7865 149.923C12.5985 150.111 12.3772 150.205 12.1228 150.205H11.6748ZM21.7462 150.205C21.4917 150.205 21.2705 150.111 21.0824 149.923C20.8944 149.735 20.8003 149.514 20.8003 149.259V142.522C20.8003 142.268 20.8944 142.046 21.0824 141.858C21.2705 141.67 21.4917 141.576 21.7462 141.576H22.1776C22.4321 141.576 22.6533 141.67 22.8414 141.858C23.0294 142.046 23.1235 142.268 23.1235 142.522V149.259C23.1235 149.514 23.0294 149.735 22.8414 149.923C22.6533 150.111 22.4321 150.205 22.1776 150.205H21.7462ZM21.7462 139.751C21.4917 139.751 21.2705 139.657 21.0824 139.469C20.8944 139.281 20.8003 139.06 20.8003 138.805V138.706C20.8003 138.451 20.8944 138.23 21.0824 138.042C21.2705 137.854 21.4917 137.76 21.7462 137.76H22.1776C22.4321 137.76 22.6533 137.854 22.8414 138.042C23.0294 138.23 23.1235 138.451 23.1235 138.706V138.805C23.1235 139.06 23.0294 139.281 22.8414 139.469C22.6533 139.657 22.4321 139.751 22.1776 139.751H21.7462ZM26.8553 150.205C26.6008 150.205 26.3796 150.111 26.1915 149.923C26.0035 149.735 25.9094 149.514 25.9094 149.259V142.522C25.9094 142.268 26.0035 142.046 26.1915 141.858C26.3796 141.67 26.6008 141.576 26.8553 141.576H27.071C27.3365 141.576 27.5577 141.67 27.7348 141.858C27.9228 142.035 28.0224 142.257 28.0334 142.522V142.638C28.0334 142.649 28.039 142.655 28.05 142.655C28.0611 142.655 28.0722 142.649 28.0832 142.638C28.8355 141.82 29.7149 141.41 30.7216 141.41C31.7283 141.41 32.4585 141.698 32.912 142.273C33.3767 142.837 33.609 143.783 33.609 145.111V149.259C33.609 149.514 33.5149 149.735 33.3269 149.923C33.1388 150.111 32.9176 150.205 32.6631 150.205H32.381C32.1266 150.205 31.9053 150.111 31.7173 149.923C31.5403 149.735 31.4518 149.514 31.4518 149.259V145.277C31.4518 144.447 31.3411 143.883 31.1199 143.584C30.9097 143.274 30.528 143.12 29.9749 143.12C29.5214 143.12 29.101 143.313 28.7138 143.7C28.3266 144.087 28.133 144.502 28.133 144.945V149.259C28.133 149.514 28.039 149.735 27.8509 149.923C27.6628 150.111 27.4416 150.205 27.1872 150.205H26.8553ZM39.8761 146.057C38.2942 146.057 37.5032 146.543 37.5032 147.517C37.5032 147.871 37.6028 148.159 37.8019 148.38C38.0121 148.601 38.2776 148.712 38.5984 148.712C39.229 148.712 39.7379 148.518 40.125 148.131C40.5122 147.733 40.7058 147.191 40.7058 146.505V146.206C40.7058 146.106 40.656 146.057 40.5565 146.057H39.8761ZM38.001 150.371C37.2488 150.371 36.6237 150.128 36.1259 149.641C35.6392 149.143 35.3958 148.501 35.3958 147.716C35.3958 146.754 35.7609 146.007 36.491 145.476C37.2322 144.945 38.3606 144.679 39.8761 144.679H40.5565C40.656 144.679 40.7058 144.63 40.7058 144.53V144.397C40.7058 143.888 40.5841 143.534 40.3408 143.335C40.0974 143.125 39.6659 143.02 39.0464 143.02C38.4048 143.02 37.6194 143.136 36.6901 143.368C36.491 143.424 36.3085 143.391 36.1425 143.269C35.9766 143.136 35.8936 142.965 35.8936 142.754C35.8936 142.5 35.971 142.273 36.1259 142.074C36.2808 141.864 36.4799 141.737 36.7233 141.692C37.5641 141.504 38.355 141.41 39.0962 141.41C40.5122 141.41 41.5023 141.665 42.0665 142.174C42.6307 142.683 42.9128 143.573 42.9128 144.845V149.259C42.9128 149.514 42.8188 149.735 42.6307 149.923C42.4537 150.111 42.238 150.205 41.9836 150.205H41.801C41.5355 150.205 41.3087 150.117 41.1207 149.94C40.9326 149.752 40.833 149.525 40.822 149.259V149.027C40.822 149.016 40.8165 149.01 40.8054 149.01C40.7833 149.01 40.7722 149.016 40.7722 149.027C40.0974 149.923 39.1737 150.371 38.001 150.371ZM46.5559 150.205C46.3015 150.205 46.0802 150.111 45.8922 149.923C45.7041 149.735 45.6101 149.514 45.6101 149.259V138.706C45.6101 138.451 45.7041 138.23 45.8922 138.042C46.0802 137.854 46.3015 137.76 46.5559 137.76H46.9874C47.2418 137.76 47.4631 137.854 47.6511 138.042C47.8392 138.23 47.9332 138.451 47.9332 138.706V149.259C47.9332 149.514 47.8392 149.735 47.6511 149.923C47.4631 150.111 47.2418 150.205 46.9874 150.205H46.5559Z" fill="#F57C00"/>
<path d="M2.06641 119.83V125.657C2.06641 126.883 3.06023 127.877 4.28618 127.877H53.8148C55.0407 127.877 56.0346 126.883 56.0346 125.657V119.83" stroke="#F57C00" stroke-width="3.32966" stroke-linecap="round"/>
</svg>
