<svg width="48" height="49" viewBox="0 0 48 49" fill="none" xmlns="http://www.w3.org/2000/svg">
<path fill-rule="evenodd" clip-rule="evenodd" d="M48.0005 10.1589C48.0005 13.1541 44.2475 15.8141 38.4414 17.489C44.2475 19.1638 48.0005 21.8239 48.0005 24.819C48.0005 27.8148 44.2461 30.4752 38.4383 32.15C44.2461 33.8249 48.0005 36.4853 48.0005 39.481C48.0005 44.549 37.2553 48.6575 24.0005 48.6575C10.7457 48.6575 0.000488281 44.549 0.000488281 39.481C0.000488281 36.4853 3.75486 33.8249 9.56272 32.15C3.75486 30.4752 0.000488281 27.8148 0.000488281 24.819C0.000488281 21.8239 3.75352 19.1638 9.5596 17.489C3.75352 15.8141 0.000488281 13.1541 0.000488281 10.1589C0.000488281 5.09087 10.7457 0.982422 24.0005 0.982422C37.2553 0.982422 48.0005 5.09087 48.0005 10.1589Z" fill="#469001"/>
</svg>
