<svg width="48" height="48" viewBox="0 0 48 48" fill="none" xmlns="http://www.w3.org/2000/svg">
<path fill-rule="evenodd" clip-rule="evenodd" d="M24.188 11.7731C24.0881 5.28415 18.7967 0.0546875 12.284 0.0546875C5.70887 0.0546875 0.378643 5.38491 0.378643 11.9601C0.378643 17.7437 4.50281 22.5641 9.97073 23.6409C4.31592 24.5652 0.000488281 29.4735 0.000488281 35.3898C0.000488281 41.9649 5.33071 47.2951 11.9059 47.2951C18.4172 47.2951 23.7076 42.0679 23.8098 35.5809C23.8108 35.5809 23.8119 35.5809 23.813 35.581C23.9152 42.0679 29.2056 47.2951 35.7169 47.2951C42.2921 47.2951 47.6223 41.9649 47.6223 35.3898C47.6223 29.6061 43.4982 24.7857 38.0303 23.709C43.6851 22.7847 48.0006 17.8763 48.0006 11.9601C48.0006 5.38491 42.6703 0.0546875 36.0952 0.0546875C29.5824 0.0546875 24.2911 5.28418 24.1912 11.7731L24.188 11.7731Z" fill="#FF9800"/>
</svg>
