<svg width="72" height="127" viewBox="0 0 72 127" fill="none" xmlns="http://www.w3.org/2000/svg">
<path d="M32.5383 61.5476C33.2331 59.2226 35.5837 57.7607 37.9492 58.3019C40.3991 58.8625 41.9041 61.3458 41.1548 63.7447C38.5355 72.1298 34.8952 80.1993 30.7901 86.3681C29.4521 88.3787 26.6672 88.6156 24.7944 87.0908C22.8836 85.5351 22.4656 82.5864 23.8591 80.5544C27.4488 75.3199 30.4384 68.5739 32.5383 61.5476ZM30.6018 94.5552C31.2256 92.2285 33.5211 90.708 35.88 91.1961C38.261 91.6887 39.7895 94.0364 39.1424 96.3802C37.4258 102.598 35.0227 108.61 32.3686 113.37C31.2509 115.375 28.6339 115.835 26.6937 114.609C24.6238 113.301 23.9702 110.4 25.1856 108.274C27.4256 104.356 29.2695 99.5245 30.6018 94.5552ZM34.2743 72.9408C34.9037 71.3883 36.4116 70.3724 38.0869 70.3724H61.5933C63.8654 70.3724 65.7073 72.2143 65.7073 74.4865C65.7073 76.7586 63.8654 78.6005 61.5933 78.6005H38.0869C35.1682 78.6005 33.1777 75.6457 34.2743 72.9408ZM43.84 78.4151C43.84 75.9793 45.8147 74.0046 48.2506 74.0046C50.6864 74.0046 52.6611 75.9793 52.6611 78.4151V116.776C52.6611 121.075 51.9198 123.521 49.2513 125.004C47.2561 126.087 44.6473 126.556 41.391 126.715C39.5961 126.803 38.0947 125.628 37.5912 123.903C36.7957 121.177 38.7896 117.923 41.629 117.894C41.9959 117.891 42.294 117.888 42.5058 117.888C43.4694 117.888 43.84 117.665 43.84 116.701V78.4151ZM57.1729 96.6206C56.2205 94.2641 57.3821 91.5309 59.7933 90.7271C61.785 90.0632 63.9712 90.956 64.8274 92.873C67.362 98.5479 69.4731 104.941 70.6604 110.25C71.1189 112.301 69.9002 114.312 67.9155 115.002C65.2932 115.914 62.474 114.174 61.8621 111.466C60.8122 106.819 59.1339 101.472 57.1729 96.6206ZM63.3353 71.4722C63.3353 70.8648 63.8277 70.3724 64.435 70.3724C64.4925 70.3724 64.5498 70.3679 64.6065 70.359L65.1143 70.2788C65.6541 70.1936 66.2044 70.1991 66.7424 70.2952L67.4746 70.4259C70.0837 70.8918 71.8541 73.3458 71.4124 75.9591C70.8828 79.0924 70.2936 82.224 69.7461 84.9495C69.3266 87.0377 67.3116 88.392 65.2134 88.0254C63.0659 87.6501 61.6204 85.6125 61.9207 83.4532C62.4353 79.7529 62.962 75.2912 63.3353 71.5585V71.4722ZM16.3216 61.2735C17.2166 59.1308 19.5717 57.9423 21.7898 58.6294C24.1782 59.3691 25.4527 61.9734 24.4726 64.2737C20.6434 73.2613 15.519 82.2708 9.98129 89.3573C8.05679 91.8201 4.16438 91.0487 2.67781 88.2993C1.68465 86.4625 1.94434 84.1949 3.31591 82.6204C8.32659 76.8683 13.0021 69.221 16.3216 61.2735ZM10.6314 79.892C10.6314 78.5904 11.1484 77.3422 12.0688 76.4218L19.0294 69.4612C19.0583 69.4323 19.1053 69.4323 19.1342 69.4612C19.1481 69.4751 19.1559 69.494 19.1559 69.5136V122.372C19.1559 124.726 17.2476 126.634 14.8936 126.634C12.5397 126.634 10.6314 124.726 10.6314 122.372V79.892Z" fill="#6B95F5"/>
</svg>
