<svg width="28" height="31" viewBox="0 0 28 31" fill="none" xmlns="http://www.w3.org/2000/svg">
<path d="M25.2569 23.1866C23.5911 20.3067 21.0241 18.2417 18.0283 17.2628C19.5101 16.3807 20.6614 15.0365 21.3054 13.4367C21.9493 11.8368 22.0503 10.0699 21.5929 8.40712C21.1354 6.74435 20.1448 5.27772 18.7731 4.23246C17.4014 3.18719 15.7245 2.62109 14 2.62109C12.2754 2.62109 10.5986 3.18719 9.22689 4.23246C7.85522 5.27772 6.86458 6.74435 6.40711 8.40712C5.94965 10.0699 6.05065 11.8368 6.6946 13.4367C7.33856 15.0365 8.48986 16.3807 9.97171 17.2628C6.97593 18.2406 4.4089 20.3056 2.74312 23.1866C2.68203 23.2862 2.64151 23.397 2.62395 23.5125C2.60639 23.628 2.61215 23.7459 2.64088 23.8592C2.66961 23.9724 2.72073 24.0788 2.79123 24.172C2.86173 24.2651 2.95018 24.3433 3.05136 24.4017C3.15254 24.4601 3.2644 24.4977 3.38034 24.5122C3.49628 24.5268 3.61396 24.5179 3.72642 24.4862C3.83888 24.4545 3.94386 24.4006 4.03515 24.3277C4.12644 24.2547 4.2022 24.1643 4.25796 24.0616C6.31858 20.5003 9.96077 18.3741 14 18.3741C18.0392 18.3741 21.6814 20.5003 23.742 24.0616C23.7978 24.1643 23.8735 24.2547 23.9648 24.3277C24.0561 24.4006 24.1611 24.4545 24.2736 24.4862C24.386 24.5179 24.5037 24.5268 24.6196 24.5122C24.7356 24.4977 24.8474 24.4601 24.9486 24.4017C25.0498 24.3433 25.1382 24.2651 25.2087 24.172C25.2793 24.0788 25.3304 23.9724 25.3591 23.8592C25.3878 23.7459 25.3936 23.628 25.376 23.5125C25.3585 23.397 25.318 23.2862 25.2569 23.1866ZM7.87499 10.4991C7.87499 9.28766 8.23422 8.10345 8.90724 7.0962C9.58026 6.08895 10.5369 5.30389 11.6561 4.84031C12.7753 4.37672 14.0068 4.25542 15.1949 4.49176C16.3831 4.72809 17.4744 5.31144 18.331 6.16804C19.1876 7.02464 19.771 8.11601 20.0073 9.30414C20.2436 10.4923 20.1223 11.7238 19.6588 12.843C19.1952 13.9622 18.4101 14.9188 17.4029 15.5918C16.3956 16.2648 15.2114 16.6241 14 16.6241C12.3761 16.6223 10.8192 15.9765 9.67088 14.8282C8.5226 13.6799 7.87673 12.123 7.87499 10.4991Z" fill="#999999"/>
</svg>
