<svg width="25" height="24" viewBox="0 0 25 24" fill="none" xmlns="http://www.w3.org/2000/svg">
<path d="M18.5 2.625H6.5C5.60489 2.625 4.74645 2.98058 4.11351 3.61351C3.48058 4.24645 3.125 5.10489 3.125 6V18C3.125 18.8951 3.48058 19.7535 4.11351 20.3865C4.74645 21.0194 5.60489 21.375 6.5 21.375H18.5C19.3951 21.375 20.2535 21.0194 20.8865 20.3865C21.5194 19.7535 21.875 18.8951 21.875 18V6C21.875 5.10489 21.5194 4.24645 20.8865 3.61351C20.2535 2.98058 19.3951 2.625 18.5 2.625ZM19.625 18C19.625 18.2984 19.5065 18.5845 19.2955 18.7955C19.0845 19.0065 18.7984 19.125 18.5 19.125H6.5C6.20163 19.125 5.91548 19.0065 5.7045 18.7955C5.49353 18.5845 5.375 18.2984 5.375 18V6C5.375 5.70163 5.49353 5.41548 5.7045 5.2045C5.91548 4.99353 6.20163 4.875 6.5 4.875H18.5C18.7984 4.875 19.0845 4.99353 19.2955 5.2045C19.5065 5.41548 19.625 5.70163 19.625 6V18ZM10.25 8.25C10.25 8.54667 10.162 8.83668 9.9972 9.08336C9.83238 9.33003 9.59811 9.52229 9.32402 9.63582C9.04994 9.74935 8.74834 9.77906 8.45736 9.72118C8.16639 9.6633 7.89912 9.52044 7.68934 9.31066C7.47956 9.10088 7.3367 8.83361 7.27882 8.54264C7.22094 8.25166 7.25065 7.95006 7.36418 7.67598C7.47771 7.40189 7.66997 7.16762 7.91664 7.0028C8.16332 6.83797 8.45333 6.75 8.75 6.75C9.14782 6.75 9.52936 6.90804 9.81066 7.18934C10.092 7.47064 10.25 7.85218 10.25 8.25ZM14 12C14 12.2967 13.912 12.5867 13.7472 12.8334C13.5824 13.08 13.3481 13.2723 13.074 13.3858C12.7999 13.4994 12.4983 13.5291 12.2074 13.4712C11.9164 13.4133 11.6491 13.2704 11.4393 13.0607C11.2296 12.8509 11.0867 12.5836 11.0288 12.2926C10.9709 12.0017 11.0006 11.7001 11.1142 11.426C11.2277 11.1519 11.42 10.9176 11.6666 10.7528C11.9133 10.588 12.2033 10.5 12.5 10.5C12.8978 10.5 13.2794 10.658 13.5607 10.9393C13.842 11.2206 14 11.6022 14 12ZM17.75 8.25C17.75 8.54667 17.662 8.83668 17.4972 9.08336C17.3324 9.33003 17.0981 9.52229 16.824 9.63582C16.5499 9.74935 16.2483 9.77906 15.9574 9.72118C15.6664 9.6633 15.3991 9.52044 15.1893 9.31066C14.9796 9.10088 14.8367 8.83361 14.7788 8.54264C14.7209 8.25166 14.7506 7.95006 14.8642 7.67598C14.9777 7.40189 15.17 7.16762 15.4166 7.0028C15.6633 6.83797 15.9533 6.75 16.25 6.75C16.6478 6.75 17.0294 6.90804 17.3107 7.18934C17.592 7.47064 17.75 7.85218 17.75 8.25ZM10.25 15.75C10.25 16.0467 10.162 16.3367 9.9972 16.5834C9.83238 16.83 9.59811 17.0223 9.32402 17.1358C9.04994 17.2494 8.74834 17.2791 8.45736 17.2212C8.16639 17.1633 7.89912 17.0204 7.68934 16.8107C7.47956 16.6009 7.3367 16.3336 7.27882 16.0426C7.22094 15.7517 7.25065 15.4501 7.36418 15.176C7.47771 14.9019 7.66997 14.6676 7.91664 14.5028C8.16332 14.338 8.45333 14.25 8.75 14.25C9.14782 14.25 9.52936 14.408 9.81066 14.6893C10.092 14.9706 10.25 15.3522 10.25 15.75ZM17.75 15.75C17.75 16.0467 17.662 16.3367 17.4972 16.5834C17.3324 16.83 17.0981 17.0223 16.824 17.1358C16.5499 17.2494 16.2483 17.2791 15.9574 17.2212C15.6664 17.1633 15.3991 17.0204 15.1893 16.8107C14.9796 16.6009 14.8367 16.3336 14.7788 16.0426C14.7209 15.7517 14.7506 15.4501 14.8642 15.176C14.9777 14.9019 15.17 14.6676 15.4166 14.5028C15.6633 14.338 15.9533 14.25 16.25 14.25C16.6478 14.25 17.0294 14.408 17.3107 14.6893C17.592 14.9706 17.75 15.3522 17.75 15.75Z" fill="#F57C00"/>
</svg>
