<svg width="24" height="24" viewBox="0 0 24 24" fill="none" xmlns="http://www.w3.org/2000/svg">
<path d="M19.1623 4.8375C17.7459 3.42236 15.9418 2.4589 13.978 2.06892C12.0142 1.67895 9.9788 1.87996 8.1292 2.64655C6.2796 3.41314 4.6988 4.71089 3.58663 6.37575C2.47446 8.04061 1.88086 9.99783 1.88086 12C1.88086 14.0022 2.47446 15.9594 3.58663 17.6243C4.6988 19.2891 6.2796 20.5869 8.1292 21.3535C9.9788 22.12 12.0142 22.3211 13.978 21.9311C15.9418 21.5411 17.7459 20.5776 19.1623 19.1625C21.0593 17.2615 22.1247 14.6856 22.1247 12C22.1247 9.31441 21.0593 6.7385 19.1623 4.8375ZM17.5685 17.5706C16.4669 18.6714 15.0637 19.4208 13.5363 19.7241C12.0089 20.0275 10.4258 19.8712 8.98717 19.275C7.54856 18.6787 6.31901 17.6694 5.45397 16.3745C4.58892 15.0796 4.12721 13.5573 4.12721 12C4.12721 10.4427 4.58892 8.92043 5.45397 7.62552C6.31901 6.33062 7.54856 5.32126 8.98717 4.72504C10.4258 4.12882 12.0089 3.97251 13.5363 4.27587C15.0637 4.57924 16.4669 5.32865 17.5685 6.42938C19.0442 7.90762 19.8731 9.91089 19.8735 11.9996C19.8739 14.0883 19.0456 16.0919 17.5704 17.5706H17.5685ZM12.0438 11.2041C12.1487 11.3086 12.2319 11.4328 12.2887 11.5695C12.3455 11.7063 12.3747 11.8529 12.3747 12.0009C12.3747 12.149 12.3455 12.2956 12.2887 12.4324C12.2319 12.5691 12.1487 12.6933 12.0438 12.7978L9.04383 15.7978C8.83249 16.0092 8.54584 16.1279 8.24696 16.1279C7.94807 16.1279 7.66143 16.0092 7.45008 15.7978C7.23874 15.5865 7.12001 15.2998 7.12001 15.0009C7.12001 14.7021 7.23874 14.4154 7.45008 14.2041L9.65602 12L7.45196 9.79407C7.24061 9.58272 7.12188 9.29608 7.12188 8.99719C7.12188 8.8492 7.15103 8.70265 7.20767 8.56593C7.2643 8.4292 7.34731 8.30496 7.45196 8.20032C7.55661 8.09567 7.68084 8.01266 7.81757 7.95602C7.9543 7.89939 8.10084 7.87024 8.24883 7.87024C8.54772 7.87024 8.83436 7.98897 9.04571 8.20032L12.0438 11.2041ZM17.2938 12.7978L14.2938 15.7978C14.0825 16.0092 13.7958 16.1279 13.497 16.1279C13.1981 16.1279 12.9114 16.0092 12.7001 15.7978C12.4887 15.5865 12.37 15.2998 12.37 15.0009C12.37 14.7021 12.4887 14.4154 12.7001 14.2041L14.906 12L12.701 9.79407C12.4897 9.58272 12.3709 9.29608 12.3709 8.99719C12.3709 8.8492 12.4001 8.70265 12.4567 8.56593C12.5134 8.4292 12.5964 8.30496 12.701 8.20032C12.8057 8.09567 12.9299 8.01266 13.0666 7.95602C13.2034 7.89939 13.3499 7.87024 13.4979 7.87024C13.7968 7.87024 14.0834 7.98897 14.2948 8.20032L17.2948 11.2003C17.4001 11.3047 17.4838 11.4288 17.541 11.5657C17.5982 11.7025 17.6277 11.8493 17.628 11.9975C17.6283 12.1458 17.5992 12.2927 17.5425 12.4297C17.4858 12.5667 17.4026 12.6912 17.2976 12.7959L17.2938 12.7978Z" fill="#F57C00"/>
</svg>
