<svg width="24" height="24" viewBox="0 0 24 24" fill="none" xmlns="http://www.w3.org/2000/svg">
<path d="M21.7959 10.5459L17.2959 15.0459C17.0846 15.2572 16.7979 15.3759 16.4991 15.3759C16.2002 15.3759 15.9135 15.2572 15.7022 15.0459C15.4908 14.8345 15.3721 14.5479 15.3721 14.249C15.3721 13.9501 15.4908 13.6635 15.7022 13.4521L18.2812 10.8749H12C9.91211 10.8772 7.91037 11.7076 6.434 13.1839C4.95764 14.6603 4.12723 16.662 4.125 18.7499C4.125 19.0483 4.00647 19.3344 3.7955 19.5454C3.58452 19.7564 3.29837 19.8749 3 19.8749C2.70163 19.8749 2.41548 19.7564 2.2045 19.5454C1.99353 19.3344 1.875 19.0483 1.875 18.7499C1.87798 16.0655 2.94567 13.4919 4.84383 11.5938C6.74199 9.69559 9.3156 8.6279 12 8.62492H18.2812L15.7041 6.04492C15.4927 5.83358 15.374 5.54693 15.374 5.24804C15.374 4.94916 15.4927 4.66251 15.7041 4.45117C15.9154 4.23983 16.2021 4.12109 16.5009 4.12109C16.7998 4.12109 17.0865 4.23983 17.2978 4.45117L21.7978 8.95117C21.9027 9.05583 21.9859 9.18018 22.0426 9.31707C22.0993 9.45397 22.1284 9.60073 22.1282 9.7489C22.1281 9.89708 22.0986 10.0438 22.0416 10.1805C21.9846 10.3173 21.9011 10.4414 21.7959 10.5459Z" fill="#F57C00"/>
</svg>
