<svg width="50" height="50" viewBox="0 0 50 50" fill="none" xmlns="http://www.w3.org/2000/svg">
<path d="M20.5206 4.18908C21.5923 -0.593377 28.408 -0.593373 29.4797 4.18909C30.1746 7.28965 33.7333 8.76373 36.417 7.06261C40.5566 4.43872 45.376 9.25818 42.7521 13.3977C41.051 16.0814 42.5251 19.6402 45.6257 20.335C50.4081 21.4067 50.4081 28.2225 45.6257 29.2942C42.5251 29.989 41.051 33.5478 42.7521 36.2315C45.376 40.371 40.5566 45.1905 36.417 42.5666C33.7333 40.8655 30.1746 42.3396 29.4797 45.4401C28.408 50.2226 21.5923 50.2226 20.5206 45.4401C19.8257 42.3396 16.267 40.8655 13.5833 42.5666C9.44373 45.1905 4.62427 40.371 7.24816 36.2315C8.94928 33.5478 7.4752 29.989 4.37463 29.2942C-0.407826 28.2225 -0.407831 21.4067 4.37463 20.335C7.4752 19.6402 8.94928 16.0814 7.24816 13.3977C4.62426 9.25818 9.44372 4.43872 13.5833 7.06261C16.267 8.76373 19.8257 7.28965 20.5206 4.18908Z" fill="#FFDA13"/>
</svg>
