<svg width="28" height="31" viewBox="0 0 28 31" fill="none" xmlns="http://www.w3.org/2000/svg">
<path d="M25.3367 21.2799L21.7066 4.02055C21.6596 3.79485 21.5685 3.58065 21.4385 3.39025C21.3086 3.19985 21.1422 3.03701 20.9491 2.91109C20.756 2.78516 20.5399 2.69863 20.3133 2.65647C20.0867 2.61431 19.8539 2.61734 19.6284 2.6654L14.5086 3.76571C14.0557 3.86487 13.6603 4.13883 13.4084 4.52799C13.1565 4.91716 13.0684 5.39006 13.1633 5.84384L16.7934 23.1032C16.8743 23.497 17.0883 23.8509 17.3995 24.1055C17.7106 24.36 18.0999 24.4997 18.5019 24.501C18.6261 24.5009 18.75 24.4877 18.8716 24.4616L23.9914 23.3613C24.4448 23.2619 24.8406 22.9874 25.0926 22.5976C25.3446 22.2078 25.4323 21.7342 25.3367 21.2799ZM14.875 5.48618C14.875 5.47962 14.875 5.47634 14.875 5.47634L19.9938 4.38259L20.358 6.11837L15.2392 7.21977L14.875 5.48618ZM15.5991 8.92821L20.72 7.82899L21.0853 9.56805L15.9688 10.6684L15.5991 8.92821ZM16.3253 12.3812L21.4463 11.2809L22.9009 18.1977L17.78 19.2981L16.3253 12.3812ZM23.625 21.6507L18.5063 22.7445L18.142 21.0087L23.2608 19.9073L23.625 21.6409C23.625 21.6474 23.625 21.6507 23.625 21.6507ZM11.375 3.50102H6.125C5.66087 3.50102 5.21575 3.6854 4.88756 4.01359C4.55937 4.34177 4.375 4.78689 4.375 5.25102V22.751C4.375 23.2152 4.55937 23.6603 4.88756 23.9885C5.21575 24.3166 5.66087 24.501 6.125 24.501H11.375C11.8391 24.501 12.2842 24.3166 12.6124 23.9885C12.9406 23.6603 13.125 23.2152 13.125 22.751V5.25102C13.125 4.78689 12.9406 4.34177 12.6124 4.01359C12.2842 3.6854 11.8391 3.50102 11.375 3.50102ZM6.125 5.25102H11.375V7.00102H6.125V5.25102ZM6.125 8.75102H11.375V19.251H6.125V8.75102ZM11.375 22.751H6.125V21.001H11.375V22.751Z" fill="#999999"/>
<rect y="28" width="28" height="3" rx="1.5" fill="#999999"/>
</svg>
