<svg width="24" height="24" viewBox="0 0 24 24" fill="none" xmlns="http://www.w3.org/2000/svg">
<path d="M22.1249 18.7491C22.1249 19.0474 22.0064 19.3336 21.7954 19.5446C21.5844 19.7555 21.2983 19.8741 20.9999 19.8741C20.7015 19.8741 20.4154 19.7555 20.2044 19.5446C19.9934 19.3336 19.8749 19.0474 19.8749 18.7491C19.8727 16.6612 19.0423 14.6594 17.5659 13.1831C16.0895 11.7067 14.0878 10.8763 11.9999 10.8741H5.71866L8.29866 13.4531C8.51 13.6645 8.62874 13.9511 8.62874 14.25C8.62874 14.5489 8.51 14.8355 8.29866 15.0469C8.08732 15.2582 7.80067 15.377 7.50179 15.377C7.2029 15.377 6.91625 15.2582 6.70491 15.0469L2.20491 10.5469C2.10003 10.4424 2.01681 10.3182 1.96003 10.1814C1.90325 10.0447 1.87402 9.89806 1.87402 9.75C1.87402 9.60193 1.90325 9.45532 1.96003 9.31858C2.01681 9.18183 2.10003 9.05764 2.20491 8.95312L6.70491 4.45312C6.80956 4.34848 6.93379 4.26547 7.07052 4.20883C7.20725 4.1522 7.35379 4.12305 7.50179 4.12305C7.64978 4.12305 7.79632 4.1522 7.93305 4.20883C8.06978 4.26547 8.19401 4.34848 8.29866 4.45312C8.40331 4.55777 8.48632 4.682 8.54295 4.81873C8.59959 4.95546 8.62874 5.102 8.62874 5.25C8.62874 5.39799 8.59959 5.54454 8.54295 5.68126C8.48632 5.81799 8.40331 5.94223 8.29866 6.04687L5.71866 8.62406H11.9999C14.6843 8.62704 17.2579 9.69473 19.1561 11.5929C21.0542 13.4911 22.1219 16.0647 22.1249 18.7491Z" fill="#F57C00"/>
</svg>
