<svg width="430" height="932" viewBox="0 0 430 932" fill="none" xmlns="http://www.w3.org/2000/svg">
<g clip-path="url(#clip0_625_4591)">
<rect width="430" height="932" fill="#FFB74D"/>
<path d="M323.521 65.1653C313.099 59.076 314.202 43.6744 325.386 39.133L347.012 30.3508C350.502 28.9336 353.306 26.2178 354.834 22.775L365.143 -0.456588C370.229 -11.9174 386.464 -12.0014 391.668 -0.593805L402.394 22.9152C403.925 26.2733 406.677 28.9233 410.09 30.328L431.116 38.9811C442.288 43.5791 443.308 59.0054 432.838 65.034L408.367 79.1239C406.021 80.4749 404.098 82.4541 402.816 84.8386L390.877 107.037C385.425 117.173 370.919 117.261 365.344 107.193L352.884 84.6871C351.616 82.3986 349.756 80.4942 347.497 79.1746L323.521 65.1653Z" fill="white" fill-opacity="0.2"/>
<path d="M360.619 210.579C327.461 199.568 292.469 213.821 279.445 242.591C278.068 245.633 279.813 249.074 282.982 250.127L399.177 288.712C402.346 289.765 405.803 288.051 406.519 284.789C413.292 253.943 393.777 221.59 360.619 210.579Z" fill="white" fill-opacity="0.2"/>
<path fill-rule="evenodd" clip-rule="evenodd" d="M112.174 145.299C124.443 147.391 136.769 140.348 140.935 128.192C145.562 114.69 138.367 99.9939 124.865 95.3668C111.492 90.7838 96.9461 97.7986 92.1744 111.053L92.1687 111.051C96.529 97.656 89.3434 83.1946 75.97 78.6116C62.468 73.9846 47.7715 81.1792 43.1445 94.6812C39.0726 106.563 44.1557 119.37 54.6358 125.426C42.368 123.336 30.0433 130.379 25.8782 142.533C21.2511 156.035 28.4457 170.732 41.9478 175.359C55.321 179.942 69.866 172.927 74.6381 159.674C74.6402 159.675 74.6422 159.675 74.6443 159.676C70.284 173.071 77.4696 187.532 90.8429 192.115C104.345 196.742 119.041 189.548 123.669 176.046C127.741 164.162 122.656 151.354 112.174 145.299Z" fill="white" fill-opacity="0.1"/>
<path fill-rule="evenodd" clip-rule="evenodd" d="M302.628 816.574C307.066 820.149 322.217 828.762 331.757 833.722C321.907 830.64 306.228 826.306 299.338 824.946C288.906 822.889 273 822.374 273 836.908C273 851.322 290.674 849.418 299.127 848.507L299.338 848.484C304.306 847.949 317.833 844.331 328.002 841.264C318.643 846.285 306.519 853.291 302.628 856.426L302.463 856.559C295.842 861.892 281.998 873.043 292.19 883.235C302.468 893.512 313.351 881.901 319.272 873.07C323.18 867.241 331.191 853.11 335.978 843.965C332.74 854.22 328.124 871 327.514 876.662L327.492 876.873C326.581 885.326 324.677 903 339.09 903C353.625 903 353.11 887.094 351.052 876.662C349.693 869.77 345.357 854.086 342.275 844.237C347.234 853.777 355.85 868.933 359.426 873.372L359.559 873.537C364.892 880.158 376.043 894.002 386.235 883.81C396.512 873.532 384.901 862.649 376.07 856.728C370.24 852.819 356.103 844.805 346.958 840.018C357.213 843.257 373.999 847.875 379.662 848.484L379.873 848.507C388.326 849.418 406 851.322 406 836.908C406 822.374 390.094 822.889 379.662 824.946C371.479 826.561 350.902 832.37 342.412 835.296C350.484 831.362 369.143 820.919 376.072 816.273C384.903 810.352 396.514 799.469 386.237 789.192C376.045 779 364.894 792.844 359.561 799.465L359.428 799.63C355.85 804.071 347.229 819.236 342.271 828.776C345.354 818.927 349.692 803.233 351.052 796.338C353.11 785.906 353.625 770 339.09 770C324.677 770 326.581 787.674 327.492 796.127L327.514 796.338C328.124 802 332.74 818.781 335.979 829.036C331.191 819.891 323.18 805.759 319.272 799.93C313.351 791.098 302.467 779.487 292.19 789.765C281.998 799.957 295.842 811.108 302.463 816.441L302.628 816.574Z" fill="white" fill-opacity="0.2"/>
<path fill-rule="evenodd" clip-rule="evenodd" d="M135.511 736.642C135.511 741.788 130.057 746.448 121.238 749.821C130.057 753.194 135.511 757.854 135.511 763C135.511 768.147 130.058 772.806 121.239 776.179C130.058 779.552 135.511 784.212 135.511 789.358C135.511 799.653 113.683 808 86.7557 808C59.8287 808 38 799.653 38 789.358C38 784.212 43.4538 779.552 52.2721 776.179C43.4538 772.806 38 768.147 38 763C38 757.854 43.4544 753.194 52.2736 749.821C43.4544 746.448 38 741.788 38 736.642C38 726.346 59.8287 718 86.7557 718C113.683 718 135.511 726.346 135.511 736.642Z" fill="white" fill-opacity="0.2"/>
</g>
<defs>
<clipPath id="clip0_625_4591">
<rect width="430" height="932" fill="white"/>
</clipPath>
</defs>
</svg>
