<svg width="59" height="91" viewBox="0 0 59 91" fill="none" xmlns="http://www.w3.org/2000/svg">
<path d="M14.3469 45.4943C13.0307 45.4943 11.8862 45.0079 10.9134 44.035C9.94052 43.0622 9.4541 41.9177 9.4541 40.6015V5.75116C9.4541 4.43498 9.94052 3.29047 10.9134 2.31763C11.8862 1.3448 13.0307 0.858382 14.3469 0.858382H15.4628C16.8362 0.858382 17.9807 1.3448 18.8963 2.31763C19.8691 3.23324 20.3842 4.37775 20.4414 5.75116V6.35203C20.4414 6.40926 20.47 6.43787 20.5272 6.43787C20.5845 6.43787 20.6417 6.40926 20.6989 6.35203C24.5902 2.11734 29.1397 0 34.3472 0C39.5547 0 43.3316 1.48786 45.6778 4.46359C48.0813 7.38209 49.283 12.2749 49.283 19.1419V40.6015C49.283 41.9177 48.7966 43.0622 47.8238 44.035C46.851 45.0079 45.7065 45.4943 44.3903 45.4943H42.931C41.6148 45.4943 40.4703 45.0079 39.4975 44.035C38.5819 43.0622 38.1241 41.9177 38.1241 40.6015V20.0003C38.1241 15.7084 37.5518 12.7899 36.4073 11.2448C35.32 9.6425 33.3457 8.84134 30.4845 8.84134C28.1382 8.84134 25.9637 9.84279 23.9608 11.8457C21.9579 13.8486 20.9564 15.9945 20.9564 18.2835V40.6015C20.9564 41.9177 20.47 43.0622 19.4972 44.035C18.5243 45.0079 17.3798 45.4943 16.0636 45.4943H14.3469Z" fill="#FFDA13"/>
<path d="M6.99796 84.7617C6.74352 84.7617 6.52227 84.6677 6.33421 84.4796C6.14614 84.2916 6.05211 84.0703 6.05211 83.8159V73.5941C6.05211 73.3396 6.14614 73.1184 6.33421 72.9303C6.52227 72.7422 6.74352 72.6482 6.99796 72.6482H7.66172C7.91615 72.6482 8.13741 72.7422 8.32547 72.9303C8.51353 73.1184 8.60756 73.3396 8.60756 73.5941V83.8159C8.60756 84.0703 8.51353 84.2916 8.32547 84.4796C8.13741 84.6677 7.91615 84.7617 7.66172 84.7617H6.99796ZM12.3339 84.7617C12.0795 84.7617 11.8582 84.6677 11.6702 84.4796C11.4821 84.2916 11.3881 84.0703 11.3881 83.8159V77.0788C11.3881 76.8243 11.4821 76.6031 11.6702 76.415C11.8582 76.2269 12.0795 76.1329 12.3339 76.1329H12.5496C12.8151 76.1329 13.0364 76.2269 13.2134 76.415C13.4015 76.592 13.501 76.8133 13.5121 77.0788V77.1949C13.5121 77.206 13.5176 77.2115 13.5287 77.2115C13.5397 77.2115 13.5508 77.206 13.5619 77.1949C14.3141 76.3763 15.1936 75.967 16.2003 75.967C17.207 75.967 17.9371 76.2546 18.3907 76.8299C18.8553 77.3941 19.0876 78.3399 19.0876 79.6674V83.8159C19.0876 84.0703 18.9936 84.2916 18.8055 84.4796C18.6175 84.6677 18.3962 84.7617 18.1418 84.7617H17.8597C17.6052 84.7617 17.384 84.6677 17.1959 84.4796C17.0189 84.2916 16.9304 84.0703 16.9304 83.8159V79.8333C16.9304 79.0037 16.8198 78.4395 16.5985 78.1408C16.3884 77.831 16.0067 77.6761 15.4536 77.6761C15 77.6761 14.5796 77.8697 14.1924 78.2569C13.8052 78.6441 13.6116 79.059 13.6116 79.5015V83.8159C13.6116 84.0703 13.5176 84.2916 13.3296 84.4796C13.1415 84.6677 12.9202 84.7617 12.6658 84.7617H12.3339ZM22.7329 84.7617C22.4785 84.7617 22.2573 84.6677 22.0692 84.4796C21.8811 84.2916 21.7871 84.0703 21.7871 83.8159V77.0788C21.7871 76.8243 21.8811 76.6031 22.0692 76.415C22.2573 76.2269 22.4785 76.1329 22.7329 76.1329H23.1644C23.4188 76.1329 23.6401 76.2269 23.8281 76.415C24.0162 76.6031 24.1102 76.8243 24.1102 77.0788V83.8159C24.1102 84.0703 24.0162 84.2916 23.8281 84.4796C23.6401 84.6677 23.4188 84.7617 23.1644 84.7617H22.7329ZM22.7329 74.3076C22.4785 74.3076 22.2573 74.2136 22.0692 74.0255C21.8811 73.8374 21.7871 73.6162 21.7871 73.3617V73.2622C21.7871 73.0077 21.8811 72.7865 22.0692 72.5984C22.2573 72.4104 22.4785 72.3163 22.7329 72.3163H23.1644C23.4188 72.3163 23.6401 72.4104 23.8281 72.5984C24.0162 72.7865 24.1102 73.0077 24.1102 73.2622V73.3617C24.1102 73.6162 24.0162 73.8374 23.8281 74.0255C23.6401 74.2136 23.4188 74.3076 23.1644 74.3076H22.7329ZM27.2778 78.0744C27.0566 78.0744 26.8685 77.997 26.7137 77.8421C26.5588 77.6761 26.4813 77.4826 26.4813 77.2613C26.4813 77.04 26.5588 76.852 26.7137 76.6971C26.8685 76.5422 27.0566 76.4648 27.2778 76.4648H28.0744C28.1739 76.4648 28.2237 76.415 28.2237 76.3155V74.2578C28.2237 74.0034 28.3122 73.7821 28.4892 73.5941C28.6773 73.406 28.8985 73.312 29.153 73.312H29.4848C29.7393 73.312 29.9605 73.406 30.1486 73.5941C30.3366 73.7821 30.4307 74.0034 30.4307 74.2578V76.3155C30.4307 76.415 30.4805 76.4648 30.58 76.4648H32.4717C32.693 76.4648 32.881 76.5422 33.0359 76.6971C33.2019 76.852 33.2848 77.04 33.2848 77.2613C33.2848 77.4826 33.2019 77.6761 33.0359 77.8421C32.881 77.997 32.693 78.0744 32.4717 78.0744H30.58C30.4805 78.0744 30.4307 78.1186 30.4307 78.2071V81.5591C30.4307 82.2782 30.5081 82.7428 30.663 82.953C30.8179 83.1632 31.1387 83.2683 31.6254 83.2683C31.8909 83.2683 32.0901 83.2572 32.2228 83.2351C32.4441 83.213 32.6377 83.2627 32.8036 83.3844C32.9695 83.5061 33.0525 83.6721 33.0525 83.8822C33.0525 84.1256 32.9695 84.3469 32.8036 84.546C32.6487 84.7341 32.4551 84.8392 32.2228 84.8613C31.7361 84.9055 31.371 84.9277 31.1276 84.9277C30.0546 84.9277 29.3023 84.7009 28.8709 84.2473C28.4394 83.7827 28.2237 82.9585 28.2237 81.7748V78.2071C28.2237 78.1186 28.1739 78.0744 28.0744 78.0744H27.2778ZM37.0257 84.7617C36.7713 84.7617 36.55 84.6677 36.3619 84.4796C36.1739 84.2916 36.0798 84.0703 36.0798 83.8159V77.0788C36.0798 76.8243 36.1739 76.6031 36.3619 76.415C36.55 76.2269 36.7713 76.1329 37.0257 76.1329H37.4571C37.7116 76.1329 37.9328 76.2269 38.1209 76.415C38.309 76.6031 38.403 76.8243 38.403 77.0788V83.8159C38.403 84.0703 38.309 84.2916 38.1209 84.4796C37.9328 84.6677 37.7116 84.7617 37.4571 84.7617H37.0257ZM37.0257 74.3076C36.7713 74.3076 36.55 74.2136 36.3619 74.0255C36.1739 73.8374 36.0798 73.6162 36.0798 73.3617V73.2622C36.0798 73.0077 36.1739 72.7865 36.3619 72.5984C36.55 72.4104 36.7713 72.3163 37.0257 72.3163H37.4571C37.7116 72.3163 37.9328 72.4104 38.1209 72.5984C38.309 72.7865 38.403 73.0077 38.403 73.2622V73.3617C38.403 73.6162 38.309 73.8374 38.1209 74.0255C37.9328 74.2136 37.7116 74.3076 37.4571 74.3076H37.0257ZM45.2544 80.6133C43.6725 80.6133 42.8815 81.1 42.8815 82.0735C42.8815 82.4275 42.9811 82.7151 43.1802 82.9364C43.3904 83.1576 43.6559 83.2683 43.9767 83.2683C44.6073 83.2683 45.1161 83.0747 45.5033 82.6875C45.8905 82.2892 46.0841 81.7472 46.0841 81.0613V80.7626C46.0841 80.663 46.0343 80.6133 45.9348 80.6133H45.2544ZM43.3793 84.9277C42.6271 84.9277 42.002 84.6843 41.5042 84.1975C41.0175 83.6997 40.7741 83.0581 40.7741 82.2726C40.7741 81.3102 41.1392 80.5635 41.8693 80.0325C42.6105 79.5015 43.7389 79.236 45.2544 79.236H45.9348C46.0343 79.236 46.0841 79.1862 46.0841 79.0866V78.9539C46.0841 78.445 45.9624 78.091 45.7191 77.8919C45.4757 77.6817 45.0442 77.5766 44.4247 77.5766C43.7831 77.5766 42.9977 77.6927 42.0684 77.9251C41.8693 77.9804 41.6868 77.9472 41.5208 77.8255C41.3549 77.6927 41.2719 77.5213 41.2719 77.3111C41.2719 77.0566 41.3493 76.8299 41.5042 76.6307C41.6591 76.4205 41.8582 76.2933 42.1016 76.2491C42.9424 76.061 43.7333 75.967 44.4745 75.967C45.8905 75.967 46.8806 76.2214 47.4448 76.7303C48.009 77.2392 48.2911 78.1297 48.2911 79.4019V83.8159C48.2911 84.0703 48.1971 84.2916 48.009 84.4796C47.832 84.6677 47.6163 84.7617 47.3618 84.7617H47.1793C46.9138 84.7617 46.687 84.6732 46.499 84.4962C46.3109 84.3082 46.2113 84.0814 46.2003 83.8159V83.5836C46.2003 83.5725 46.1947 83.567 46.1837 83.567C46.1616 83.567 46.1505 83.5725 46.1505 83.5836C45.4757 84.4796 44.552 84.9277 43.3793 84.9277ZM51.9342 84.7617C51.6798 84.7617 51.4585 84.6677 51.2705 84.4796C51.0824 84.2916 50.9884 84.0703 50.9884 83.8159V73.2622C50.9884 73.0077 51.0824 72.7865 51.2705 72.5984C51.4585 72.4104 51.6798 72.3163 51.9342 72.3163H52.3657C52.6201 72.3163 52.8414 72.4104 53.0294 72.5984C53.2175 72.7865 53.3115 73.0077 53.3115 73.2622V83.8159C53.3115 84.0703 53.2175 84.2916 53.0294 84.4796C52.8414 84.6677 52.6201 84.7617 52.3657 84.7617H51.9342Z" fill="#FFDA13"/>
<path d="M2.51587 54.3828V60.2097C2.51587 61.4357 3.50969 62.4295 4.73564 62.4295H54.2643C55.4902 62.4295 56.484 61.4357 56.484 60.2097V54.3828" stroke="#FFDA13" stroke-width="3.32966" stroke-linecap="round"/>
</svg>
