<svg width="430" height="932" viewBox="0 0 430 932" fill="none" xmlns="http://www.w3.org/2000/svg">
<g clip-path="url(#clip0_1003_9619)">
<rect width="430" height="932" fill="#FFB74D"/>
<path fill-rule="evenodd" clip-rule="evenodd" d="M64.0239 200.405C58.4261 211.976 44.5141 216.836 32.9258 211.26C21.3226 205.676 16.4428 191.743 22.0265 180.14C27.6102 168.537 41.543 163.657 53.1461 169.241C64.7346 174.818 69.6167 188.722 64.0665 200.317C69.6644 188.745 83.5763 183.885 95.1647 189.462C106.768 195.045 111.648 208.978 106.064 220.581C100.505 232.134 86.6689 237.022 75.0963 231.553C86.5901 237.185 91.403 251.046 85.8437 262.599C80.26 274.202 66.3273 279.082 54.7241 273.498C43.1662 267.936 38.2794 254.09 43.7599 242.515C38.1336 254.021 24.2638 258.841 12.7055 253.279C1.10236 247.696 -3.77738 233.763 1.80632 222.16C7.39002 210.557 21.3227 205.677 32.9259 211.261C44.4838 216.822 49.3706 230.668 43.8901 242.244C49.4917 230.788 63.2649 225.96 74.7925 231.407C63.3133 225.782 58.4981 211.949 64.0239 200.405Z" fill="white" fill-opacity="0.2"/>
<rect y="310" width="430" height="622" fill="white"/>
<path fill-rule="evenodd" clip-rule="evenodd" d="M329.861 81.7737C334.931 77.6893 352.23 67.8546 363.134 62.1852C351.876 65.7074 333.971 70.656 326.1 72.2088C314.178 74.5606 296 75.1489 296 58.5381C296 42.0652 316.199 44.2416 325.86 45.2825L326.1 45.3084C331.782 45.9199 347.26 50.0613 358.885 53.5681C348.185 47.8278 334.309 39.8101 329.858 36.2243L329.67 36.0726C322.103 29.9776 306.281 17.2335 317.929 5.58545C329.674 -6.16019 342.112 7.10972 348.879 17.2029C353.348 23.8675 362.511 40.0304 367.981 50.4817C364.279 38.7626 359 19.5736 358.304 13.1002L358.278 12.8597C357.237 3.19919 355.061 -17 371.533 -17C388.144 -17 387.556 1.17816 385.204 13.1002C383.65 20.9767 378.696 38.8998 375.173 50.1568C380.841 39.2538 390.686 21.9345 394.774 16.8614L394.925 16.673C401.021 9.10596 413.765 -6.71594 425.413 4.93213C437.158 16.6778 423.888 29.1157 413.795 35.8828C407.129 40.3525 390.958 49.5195 380.507 54.989C392.225 51.287 411.424 46.0053 417.9 45.3084L418.14 45.2825C427.801 44.2416 448 42.0652 448 58.5381C448 75.1489 429.822 74.5606 417.9 72.2088C408.555 70.3654 385.07 63.7357 375.352 60.3889C384.592 64.8956 405.882 76.8118 413.792 82.1152C423.885 88.8824 437.155 101.32 425.409 113.066C413.761 124.714 401.017 108.892 394.922 101.325L394.77 101.137C390.685 96.0656 380.846 78.7587 375.177 67.8548C378.699 79.1125 383.651 97.026 385.204 104.9C387.556 116.822 388.144 135 371.533 135C355.061 135 357.237 114.801 358.278 105.14L358.304 104.9C359 98.4285 364.275 79.2501 367.977 67.5299C362.506 77.9816 353.349 94.1334 348.883 100.795C342.116 110.888 329.678 124.158 317.932 112.413C306.284 100.765 322.106 88.0205 329.673 81.9255L329.861 81.7737Z" fill="white" fill-opacity="0.2"/>
</g>
<defs>
<clipPath id="clip0_1003_9619">
<rect width="430" height="932" fill="white"/>
</clipPath>
</defs>
</svg>
