<svg width="29" height="31" viewBox="0 0 29 31" fill="none" xmlns="http://www.w3.org/2000/svg">
<path d="M21.3333 3.5H7.33325C6.40499 3.5 5.51476 3.86875 4.85838 4.52513C4.202 5.1815 3.83325 6.07174 3.83325 7V21C3.83325 21.9283 4.202 22.8185 4.85838 23.4749C5.51476 24.1313 6.40499 24.5 7.33325 24.5H21.3333C22.2615 24.5 23.1517 24.1313 23.8081 23.4749C24.4645 22.8185 24.8333 21.9283 24.8333 21V7C24.8333 6.07174 24.4645 5.1815 23.8081 4.52513C23.1517 3.86875 22.2615 3.5 21.3333 3.5ZM23.0833 21C23.0833 21.4641 22.8989 21.9092 22.5707 22.2374C22.2425 22.5656 21.7974 22.75 21.3333 22.75H7.33325C6.86912 22.75 6.424 22.5656 6.09582 22.2374C5.76763 21.9092 5.58325 21.4641 5.58325 21V7C5.58325 6.53587 5.76763 6.09075 6.09582 5.76256C6.424 5.43437 6.86912 5.25 7.33325 5.25H21.3333C21.7974 5.25 22.2425 5.43437 22.5707 5.76256C22.8989 6.09075 23.0833 6.53587 23.0833 7V21ZM11.7083 10.0625C11.7083 10.3221 11.6313 10.5758 11.4871 10.7917C11.3428 11.0075 11.1379 11.1758 10.898 11.2751C10.6582 11.3744 10.3943 11.4004 10.1397 11.3498C9.8851 11.2991 9.65123 11.1741 9.46767 10.9906C9.28412 10.807 9.15911 10.5732 9.10847 10.3186C9.05783 10.064 9.08382 9.80006 9.18316 9.56023C9.2825 9.3204 9.45073 9.11542 9.66657 8.9712C9.88241 8.82698 10.1362 8.75 10.3958 8.75C10.7438 8.75 11.0777 8.88828 11.3238 9.13442C11.57 9.38056 11.7083 9.7144 11.7083 10.0625ZM19.5833 10.0625C19.5833 10.3221 19.5063 10.5758 19.3621 10.7917C19.2178 11.0075 19.0129 11.1758 18.773 11.2751C18.5332 11.3744 18.2693 11.4004 18.0147 11.3498C17.7601 11.2991 17.5262 11.1741 17.3427 10.9906C17.1591 10.807 17.0341 10.5732 16.9835 10.3186C16.9328 10.064 16.9588 9.80006 17.0582 9.56023C17.1575 9.3204 17.3257 9.11542 17.5416 8.9712C17.7574 8.82698 18.0112 8.75 18.2708 8.75C18.6188 8.75 18.9527 8.88828 19.1988 9.13442C19.445 9.38056 19.5833 9.7144 19.5833 10.0625ZM11.7083 17.9375C11.7083 18.1971 11.6313 18.4508 11.4871 18.6667C11.3428 18.8825 11.1379 19.0508 10.898 19.1501C10.6582 19.2494 10.3943 19.2754 10.1397 19.2248C9.8851 19.1741 9.65123 19.0491 9.46767 18.8656C9.28412 18.682 9.15911 18.4482 9.10847 18.1936C9.05783 17.939 9.08382 17.6751 9.18316 17.4352C9.2825 17.1954 9.45073 16.9904 9.66657 16.8462C9.88241 16.702 10.1362 16.625 10.3958 16.625C10.7438 16.625 11.0777 16.7633 11.3238 17.0094C11.57 17.2556 11.7083 17.5894 11.7083 17.9375ZM15.6458 14C15.6458 14.2596 15.5688 14.5133 15.4246 14.7292C15.2803 14.945 15.0754 15.1133 14.8355 15.2126C14.5957 15.3119 14.3318 15.3379 14.0772 15.2873C13.8226 15.2366 13.5887 15.1116 13.4052 14.9281C13.2216 14.7445 13.0966 14.5107 13.046 14.2561C12.9953 14.0015 13.0213 13.7376 13.1207 13.4977C13.22 13.2579 13.3882 13.0529 13.6041 12.9087C13.8199 12.7645 14.0737 12.6875 14.3333 12.6875C14.6813 12.6875 15.0152 12.8258 15.2613 13.0719C15.5075 13.3181 15.6458 13.6519 15.6458 14ZM19.5833 17.9375C19.5833 18.1971 19.5063 18.4508 19.3621 18.6667C19.2178 18.8825 19.0129 19.0508 18.773 19.1501C18.5332 19.2494 18.2693 19.2754 18.0147 19.2248C17.7601 19.1741 17.5262 19.0491 17.3427 18.8656C17.1591 18.682 17.0341 18.4482 16.9835 18.1936C16.9328 17.939 16.9588 17.6751 17.0582 17.4352C17.1575 17.1954 17.3257 16.9904 17.5416 16.8462C17.7574 16.702 18.0112 16.625 18.2708 16.625C18.6188 16.625 18.9527 16.7633 19.1988 17.0094C19.445 17.2556 19.5833 17.5894 19.5833 17.9375Z" fill="#999999"/>
</svg>
