<svg width="29" height="31" viewBox="0 0 29 31" fill="none" xmlns="http://www.w3.org/2000/svg">
<path d="M19.9166 25.3739C19.9166 25.606 19.8245 25.8285 19.6604 25.9926C19.4963 26.1567 19.2737 26.2489 19.0416 26.2489H10.2916C10.0596 26.2489 9.83702 26.1567 9.67293 25.9926C9.50883 25.8285 9.41665 25.606 9.41665 25.3739C9.41665 25.1418 9.50883 24.9193 9.67293 24.7552C9.83702 24.5911 10.0596 24.4989 10.2916 24.4989H19.0416C19.2737 24.4989 19.4963 24.5911 19.6604 24.7552C19.8245 24.9193 19.9166 25.1418 19.9166 25.3739ZM24.2917 11.3739C24.2954 12.8326 23.9659 14.2728 23.3282 15.5847C22.6906 16.8966 21.7616 18.0455 20.6123 18.9437C20.3974 19.1085 20.223 19.3201 20.1024 19.5626C19.9818 19.8051 19.9183 20.0719 19.9166 20.3426V20.9989C19.9166 21.463 19.7323 21.9081 19.4041 22.2363C19.0759 22.5645 18.6308 22.7489 18.1666 22.7489H11.1666C10.7025 22.7489 10.2574 22.5645 9.92921 22.2363C9.60102 21.9081 9.41665 21.463 9.41665 20.9989V20.3426C9.41647 20.0751 9.35495 19.8112 9.23683 19.5711C9.1187 19.3311 8.94711 19.1213 8.73524 18.958C7.58877 18.0651 6.66045 16.9231 6.02053 15.6184C5.38061 14.3138 5.04587 12.8806 5.04165 11.4275C5.01321 6.21467 9.22634 1.87357 14.4348 1.74889C15.7181 1.71796 16.9947 1.94407 18.1894 2.41391C19.384 2.88374 20.4726 3.58781 21.3911 4.48467C22.3095 5.38154 23.0393 6.45307 23.5375 7.6362C24.0356 8.81934 24.292 10.0902 24.2917 11.3739ZM22.5417 11.3739C22.542 10.3235 22.3321 9.2837 21.9245 8.31564C21.5169 7.34758 20.9198 6.47085 20.1682 5.73704C19.4167 5.00324 18.526 4.42719 17.5484 4.04282C16.5709 3.65844 15.5264 3.4735 14.4763 3.49889C10.2107 3.59951 6.76868 7.15092 6.79165 11.4165C6.79564 12.605 7.06989 13.777 7.59364 14.8438C8.11739 15.9106 8.87693 16.8444 9.81477 17.5744C10.2364 17.9021 10.5774 18.3219 10.8117 18.8018C11.046 19.2816 11.1674 19.8087 11.1666 20.3426V20.9989H18.1666V20.3426C18.1679 19.8071 18.2914 19.279 18.5277 18.7985C18.7641 18.318 19.1071 17.8978 19.5306 17.57C20.4713 16.8348 21.2316 15.8944 21.7535 14.8205C22.2753 13.7467 22.5449 12.5678 22.5417 11.3739ZM20.7796 10.3523C20.5527 9.08499 19.943 7.9176 19.0325 7.00731C18.122 6.09702 16.9545 5.48754 15.6871 5.26092C15.5738 5.24182 15.4578 5.24522 15.3458 5.27094C15.2338 5.29666 15.1279 5.34419 15.0343 5.41082C14.9407 5.47744 14.8611 5.56186 14.8 5.65925C14.739 5.75664 14.6978 5.86509 14.6787 5.97842C14.6596 6.09175 14.663 6.20773 14.6887 6.31974C14.7144 6.43175 14.7619 6.5376 14.8286 6.63124C14.8952 6.72488 14.9796 6.80448 15.077 6.8655C15.1744 6.92652 15.2829 6.96775 15.3962 6.98686C17.2085 7.29201 18.7463 8.82982 19.0537 10.6455C19.0883 10.8492 19.194 11.0342 19.3519 11.1675C19.5099 11.3009 19.7099 11.374 19.9166 11.3739C19.9661 11.3736 20.0155 11.3696 20.0643 11.3619C20.293 11.3228 20.4969 11.1945 20.631 11.0052C20.7651 10.8159 20.8186 10.581 20.7796 10.3523Z" fill="#999999"/>
</svg>
